<svg xmlns="http://www.w3.org/2000/svg" xmlns:xlink="http://www.w3.org/1999/xlink" width="640" height="352" viewBox="0 0 640 352">
  <defs>
    <style>
      .cls-1 {
        fill: #e7e9f7;
      }

      .cls-2 {
        fill: #fff;
      }

      .cls-3 {
        fill: #f2f4f8;
      }

      .cls-4, .cls-5 {
        font-size: 12px;
        fill: #1d364d;
      }

      .cls-4 {
        font-family: IBMPlexSans, IBM Plex Sans;
      }

      .cls-5 {
        font-family: IBMPlexSans-SemiBold, IBM Plex Sans;
        font-weight: 600;
      }

      .cls-6, .cls-7 {
        fill: #3c6df0;
      }

      .cls-7 {
        opacity: 0.5;
      }

      .cls-8 {
        fill: none;
        stroke: #b0bef3;
        stroke-miterlimit: 10;
        stroke-dasharray: 4 4;
      }

      .cls-10, .cls-9 {
        opacity: 0.4;
      }

      .cls-9 {
        fill: url(#linear-gradient);
      }

      .cls-10 {
        fill: url(#linear-gradient-2);
      }
    </style>
    <linearGradient id="linear-gradient" x1="95" y1="164" x2="240" y2="164" gradientUnits="userSpaceOnUse">
      <stop offset="0" stop-color="#3c6df0"/>
      <stop offset="0.8" stop-color="#3c6df0" stop-opacity="0.2"/>
      <stop offset="1" stop-color="#3c6df0" stop-opacity="0"/>
    </linearGradient>
    <linearGradient id="linear-gradient-2" x1="336" x2="481" gradientTransform="translate(889 328) rotate(180)" xlink:href="#linear-gradient"/>
  </defs>
  <title>Kafka_Connect_Basics</title>
  <g data-name="Layer 1">
    <g>
      <rect class="cls-2" x="216.5" y="48.5" width="206.98" height="246.84"/>
      <path class="cls-3" d="M423,49V294.84H217V49H423m1-1H216V295.84H424V48Z"/>
    </g>
    <text class="cls-4" transform="translate(40.2 276.01)">External System</text>
    <g>
      <rect class="cls-2" x="63.5" y="148.5" width="31" height="31"/>
      <path class="cls-3" d="M94,149v30H64V149H94m1-1H63v32H95V148Z"/>
    </g>
    <text class="cls-4" transform="translate(521.8 282.01)">External System</text>
    <text class="cls-5" transform="translate(281.47 279.75)">Event Streams</text>
    <path class="cls-3" d="M407,81V247H241V81H407m1-1H240V248H408V80Z"/>
    <rect class="cls-6" x="256" y="216" width="16" height="16"/>
    <rect class="cls-6" x="280" y="216" width="16" height="16"/>
    <rect class="cls-6" x="304" y="216" width="16" height="16"/>
    <rect class="cls-6" x="328" y="216" width="16" height="16"/>
    <rect class="cls-6" x="352" y="216" width="16" height="16"/>
    <rect class="cls-7" x="376" y="216" width="16" height="16"/>
    <rect class="cls-6" x="256" y="192" width="16" height="16"/>
    <rect class="cls-6" x="280" y="192" width="16" height="16"/>
    <rect class="cls-6" x="304" y="192" width="16" height="16"/>
    <rect class="cls-6" x="328" y="192" width="16" height="16"/>
    <rect class="cls-6" x="352" y="192" width="16" height="16"/>
    <rect class="cls-6" x="376" y="192" width="16" height="16"/>
    <rect class="cls-6" x="256" y="168" width="16" height="16"/>
    <rect class="cls-6" x="280" y="168" width="16" height="16"/>
    <rect class="cls-6" x="304" y="168" width="16" height="16"/>
    <rect class="cls-6" x="328" y="168" width="16" height="16"/>
    <rect class="cls-6" x="352" y="168" width="16" height="16"/>
    <rect class="cls-6" x="376" y="168" width="16" height="16"/>
    <rect class="cls-6" x="256" y="144" width="16" height="16"/>
    <rect class="cls-6" x="280" y="144" width="16" height="16"/>
    <rect class="cls-6" x="304" y="144" width="16" height="16"/>
    <rect class="cls-6" x="328" y="144" width="16" height="16"/>
    <rect class="cls-6" x="352" y="144" width="16" height="16"/>
    <rect class="cls-6" x="376" y="144" width="16" height="16"/>
    <rect class="cls-6" x="256" y="120" width="16" height="16"/>
    <rect class="cls-6" x="280" y="120" width="16" height="16"/>
    <rect class="cls-6" x="304" y="120" width="16" height="16"/>
    <rect class="cls-6" x="328" y="120" width="16" height="16"/>
    <rect class="cls-6" x="352" y="120" width="16" height="16"/>
    <rect class="cls-6" x="376" y="120" width="16" height="16"/>
    <rect class="cls-6" x="256" y="96" width="16" height="16"/>
    <rect class="cls-6" x="280" y="96" width="16" height="16"/>
    <rect class="cls-6" x="304" y="96" width="16" height="16"/>
    <rect class="cls-6" x="328" y="96" width="16" height="16"/>
    <rect class="cls-6" x="352" y="96" width="16" height="16"/>
    <rect class="cls-6" x="376" y="96" width="16" height="16"/>
    <line class="cls-8" x1="160.75" y1="51.75" x2="160" y2="295.5"/>
    <line class="cls-8" x1="480.75" y1="51.75" x2="480" y2="295.5"/>
    <rect class="cls-6" x="74" y="159" width="10" height="10"/>
    <path class="cls-9" d="M240,248c-40,0-47-69.7-145-69.7V149.7c98,0,105-69.7,145-69.7Z"/>
    <path class="cls-10" d="M408,80c40,0,47,69.7,145,69.7v28.6c-98,0-105,69.7-145,69.7Z"/>
    <g>
      <rect class="cls-2" x="550.5" y="148.5" width="31" height="31"/>
      <path class="cls-3" d="M581,149v30H551V149h30m1-1H550v32h32V148Z"/>
    </g>
    <rect class="cls-6" x="561" y="159" width="10" height="10"/>
  </g>
</svg>
