<svg data-name="Layer 1" xmlns="http://www.w3.org/2000/svg" width="68" height="18.68" viewBox="0 0 68 18.68">
  <defs>
    <style>
      .cls-1 {
        fill: #242a2e;
      }

      .cls-2 {
        fill: #3a4044;
      }

      .cls-3 {
        fill: none;
        stroke: #3a4044;
        stroke-miterlimit: 10;
      }
    </style>
  </defs>
  <title>connector_sink</title>
  <g>
    <circle class="cls-1" cx="6" cy="9.34" r="5.5"/>
    <path class="cls-2" d="M6,8a5,5,0,1,1-5,5A5,5,0,0,1,6,8M6,7a6,6,0,1,0,6,6A6,6,0,0,0,6,7Z" transform="translate(0 -3.66)"/>
  </g>
  <g>
    <circle class="cls-1" cx="62" cy="9.34" r="5.5"/>
    <path class="cls-2" d="M62,8a5,5,0,1,1-5,5,5,5,0,0,1,5-5m0-1a6,6,0,1,0,6,6,6,6,0,0,0-6-6Z" transform="translate(0 -3.66)"/>
  </g>
  <polyline class="cls-3" points="42.11 0.35 50.94 9.34 42.11 18.33"/>
  <line class="cls-3" x1="12" y1="9.34" x2="51" y2="9.34"/>
</svg>
