<?xml version="1.0" encoding="UTF-8"?>
<svg width="20px" height="20px" viewBox="0 0 20 20" version="1.1" xmlns="http://www.w3.org/2000/svg" xmlns:xlink="http://www.w3.org/1999/xlink">
    <!-- Generator: Sketch 55.2 (78181) - https://sketchapp.com -->
    <title>documentationIcon</title>
    <desc>Created with Sketch.</desc>
    <g id="documentationIcon" stroke="none" stroke-width="1" fill="none" fill-rule="evenodd">
        <path d="M16.0828129,5.81985058 C16.2064219,5.93140159 16.2750193,6.09146218 16.27055,6.25790385 L16.27055,17.5221308 C16.27055,18.2133598 15.7101982,18.7737116 15.0189692,18.7737116 L5.00632308,18.7737116 C4.31509411,18.7737116 3.75474231,18.2133598 3.75474231,17.5221308 L3.75474231,2.50316154 C3.75474231,1.81193257 4.31509411,1.25158077 5.00632308,1.25158077 L11.2642269,1.25158077 C11.4306686,1.24711153 11.5907292,1.31570893 11.7022802,1.43931789 L16.0828129,5.81985058 Z M15.0189692,17.5221308 L15.0189692,7.50948462 L11.2642269,7.50948462 C10.572998,7.50948462 10.0126462,6.94913283 10.0126462,6.25790385 L10.0126462,2.50316154 L5.00632308,2.50316154 L5.00632308,17.5221308 L15.0189692,17.5221308 Z M11.2642269,2.7534777 L11.2642269,6.25790385 L14.7686531,6.25790385 L11.2642269,2.7534777 Z" id="Combined-Shape" fill="#FFFFFF"></path>
        <rect id="Rectangle-path" fill="#FFFFFF" x="6.88369424" y="13.7673885" width="6.25790385" height="1.25158077"></rect>
        <rect id="Rectangle-path" fill="#FFFFFF" x="6.88369424" y="10.0126462" width="6.25790385" height="1.25158077"></rect>
    </g>
</svg>