<?xml version="1.0" encoding="UTF-8"?>
<svg width="16px" height="16px" viewBox="0 0 16 16" version="1.1" xmlns="http://www.w3.org/2000/svg" xmlns:xlink="http://www.w3.org/1999/xlink">
    <defs>
        <path d="M0.529,0.17 C1.733,3.278 4.669,5.374 8,5.501 L8,5.501 C11.33,5.374 14.267,3.278 15.47,0.17 L15.47,0.17" id="path-1"></path>
    </defs>
    <g id="eyeClosed" stroke="none" stroke-width="1" fill="none" fill-rule="evenodd">
        <g id="Group-3" transform="translate(0.000000, 8.000000)">
            <mask id="mask-2" fill="white">
                <use xlink:href="#path-1"></use>
            </mask>
            <g id="Clip-2"></g>
            <path d="M0.5298,0.1704 C1.7328,3.2774 4.6698,5.3734 8.0008,5.5004 C11.3308,5.3734 14.2668,3.2774 15.4698,0.1704 C15.5088,0.0604 15.5088,-0.0596 15.4698,-0.1706" id="Stroke-1" stroke="#020203" stroke-width="2" mask="url(#mask-2)"></path>
        </g>
        <path d="M1.00007124,7.99981596 C2.13359254,10.9163293 4.89123829,12.8815169 7.98080114,13.0003606 C11.1119697,12.8813772 13.8724677,10.9117045 14.9995746,8 L15.0034958,8.01047772 C13.8724677,5.08829545 11.1119697,3.11862283 8.01877342,2.9996394 C4.88767084,3.11862033 2.12722317,5.08821245 1.00007124,7.99981596 Z" id="Shape" stroke="#000000" opacity="0.0507114955" fill-rule="nonzero"></path>
    </g>
</svg>