<?xml version="1.0" encoding="UTF-8"?>
<svg width="16px" height="16px" viewBox="0 0 16 16" version="1.1" xmlns="http://www.w3.org/2000/svg" xmlns:xlink="http://www.w3.org/1999/xlink">
    <!-- Generator: Sketch 53.2 (72643) - https://sketchapp.com -->
    <title>install</title>
    <desc>Created with Sketch.</desc>
    <g id="install" stroke="none" stroke-width="1" fill="none" fill-rule="evenodd">
        <path d="M1,5.5 L1,3 C1,2.44771525 1.44771525,2 2,2 L14,2 C14.5522847,2 15,2.44771525 15,3 L15,11 C15,11.5522847 14.5522847,12 14,12 L10,12 L10,14 L12,14 L12,15 L4,15 L4,14 L6,14 L6,12 L2,12 C1.44771525,12 1,11.5522847 1,11 L1,8.5 L2,8.5 L2,11 L14,11 L14,3 L2,3 L2,5.5 L1,5.5 Z M9,14 L9,12 L7,12 L7,14 L9,14 Z" id="Combined-Shape" fill="#0062FF"></path>
        <polygon id="Shape" fill="#0062FF" fill-rule="nonzero" transform="translate(5.000000, 7.000000) rotate(-90.000000) translate(-5.000000, -7.000000) " points="4.5 4 4.5 8.085 3.205 6.79 2.5 7.5 5 10 7.5 7.5 6.795 6.795 5.5 8.085 5.5 4"></polygon>
    </g>
</svg>