<?xml version="1.0" encoding="UTF-8"?>
<svg width="16px" height="16px" viewBox="0 0 16 16" version="1.1" xmlns="http://www.w3.org/2000/svg" xmlns:xlink="http://www.w3.org/1999/xlink">
    <!-- Generator: Sketch 53.2 (72643) - https://sketchapp.com -->
    <title>lock</title>
    <desc>Created with Sketch.</desc>
    <defs>
        <path d="M12,7 L11,7 L11,4 C11,2.34314575 9.65685425,1 8,1 C6.34314575,1 5,2.34314575 5,4 L5,7 L4,7 C3.44771525,7 3,7.44771525 3,8 L3,14 C3,14.5522847 3.44771525,15 4,15 L12,15 C12.5522847,15 13,14.5522847 13,14 L13,8 C13,7.44771525 12.5522847,7 12,7 Z M6,4 C6,2.8954305 6.8954305,2 8,2 C9.1045695,2 10,2.8954305 10,4 L10,7 L6,7 L6,4 Z M12,14 L4,14 L4,8 L12,8 L12,14 Z" id="path-1"></path>
    </defs>
    <g id="lock" stroke="none" stroke-width="1" fill="none" fill-rule="evenodd">
        <mask id="mask-2" fill="white">
            <use xlink:href="#path-1"></use>
        </mask>
        <use id="icon-color" fill="#0062FF" xlink:href="#path-1"></use>
    </g>
</svg>