<?xml version="1.0" encoding="UTF-8"?>
<svg width="16px" height="16px" viewBox="0 0 16 16" version="1.1" xmlns="http://www.w3.org/2000/svg" xmlns:xlink="http://www.w3.org/1999/xlink">
    <!-- Generator: Sketch 53.2 (72643) - https://sketchapp.com -->
    <title>messageLoads</title>
    <desc>Created with Sketch.</desc>
    <defs>
        <path d="M10.5,14.5 L2.5,14.5 C1.9,14.5 1.5,14.1 1.5,13.5 L1.5,2.5 C1.5,1.9 1.9,1.5 2.5,1.5 L10.5,1.5 L10.5,2.5 L2.5,2.5 L2.5,13.5 L10.5,13.5 L10.5,14.5 Z M7.5,4.5 L8.5,4.5 L8.5,11.5 L7.5,11.5 L7.5,4.5 Z M13.5,4.5 L14.5,4.5 L14.5,11.5 L13.5,11.5 L13.5,4.5 Z M10.5,4.5 L11.5,4.5 L11.5,11.5 L10.5,11.5 L10.5,4.5 Z" id="path-1"></path>
    </defs>
    <g id="messageLoads" stroke="none" stroke-width="1" fill="none" fill-rule="evenodd">
        <mask id="mask-2" fill="white">
            <use xlink:href="#path-1"></use>
        </mask>
        <use id="icon-color" fill="#0062FF" xlink:href="#path-1"></use>
    </g>
</svg>