<svg data-name="Layer 1" xmlns="http://www.w3.org/2000/svg" xmlns:xlink="http://www.w3.org/1999/xlink" width="31.36" height="31.31" viewBox="0 0 31.36 31.31">
  <defs>
    <style>
      .cls-1, .cls-5, .cls-6, .cls-9 {
        fill: none;
        stroke: #fff;
        stroke-width: 1.97px;
      }

      .cls-1, .cls-6 {
        stroke-linecap: round;
        stroke-linejoin: round;
      }

      .cls-2 {
        fill: url(#linear-gradient);
      }

      .cls-3 {
        fill: url(#linear-gradient-2);
      }

      .cls-4 {
        mask: url(#mask);
      }

      .cls-5, .cls-9 {
        stroke-miterlimit: 10;
      }

      .cls-12, .cls-6, .cls-9 {
        isolation: isolate;
      }

      .cls-7 {
        fill: url(#linear-gradient-3);
      }

      .cls-8 {
        mask: url(#mask-2);
      }

      .cls-10 {
        fill: #fff;
      }

      .cls-11 {
        mask: url(#mask-3);
      }

      .cls-12 {
        fill: #0062ff;
      }

      .cls-13 {
        filter: url(#luminosity-noclip-2);
      }

      .cls-14 {
        filter: url(#luminosity-noclip);
      }
    </style>
    <linearGradient id="linear-gradient" x1="225.8" y1="107.48" x2="236.12" y2="107.48" gradientTransform="translate(-162.68 -96.99) scale(0.72 1)" gradientUnits="userSpaceOnUse">
      <stop offset="0" stop-opacity="0"/>
      <stop offset="0.83"/>
    </linearGradient>
    <linearGradient id="linear-gradient-2" x1="222.83" y1="109.03" x2="228.3" y2="109.03" gradientTransform="translate(-226.54 -80.99) scale(1.06 1)" xlink:href="#linear-gradient"/>
    <filter id="luminosity-noclip" x="0.82" y="1.65" width="28.8" height="29.22" filterUnits="userSpaceOnUse" color-interpolation-filters="sRGB">
      <feFlood flood-color="#fff" result="bg"/>
      <feBlend in="SourceGraphic" in2="bg"/>
    </filter>
    <mask id="mask" x="0.82" y="1.65" width="28.8" height="29.22" maskUnits="userSpaceOnUse">
      <g class="cls-14">
        <g id="Gradients_black_" data-name="Gradients (black)">
          <rect class="cls-2" x="0.18" y="8.42" width="7.44" height="4.13" rx="0.59" transform="matrix(0.36, -0.93, 0.93, 0.36, -7.29, 10.4)"/>
        </g>
        <g id="Gradients_black_2" data-name="Gradients (black)">
          <rect class="cls-3" x="8.6" y="26.04" width="5.77" height="4" transform="translate(9.84 -2.22) rotate(19.16)"/>
        </g>
      </g>
    </mask>
    <linearGradient id="linear-gradient-3" x1="-115.54" y1="-20.82" x2="-105.22" y2="-20.82" gradientTransform="translate(63.96 39.62) scale(0.45 0.86)" gradientUnits="userSpaceOnUse">
      <stop offset="0" stop-opacity="0"/>
      <stop offset="0.95"/>
    </linearGradient>
    <filter id="luminosity-noclip-2" x="8.27" y="8.32" width="14.32" height="15.74" filterUnits="userSpaceOnUse" color-interpolation-filters="sRGB">
      <feFlood flood-color="#fff" result="bg"/>
      <feBlend in="SourceGraphic" in2="bg"/>
    </filter>
    <mask id="mask-2" x="8.27" y="8.32" width="14.32" height="15.74" maskUnits="userSpaceOnUse">
      <g class="cls-13">
        <rect class="cls-7" x="11.7" y="19.92" width="4.67" height="3.55" rx="0.47" transform="translate(8.78 -3.6) rotate(21.16)"/>
      </g>
    </mask>
    <mask id="mask-3" x="-0.15" y="-0.1" width="31.51" height="31.51" maskUnits="userSpaceOnUse">
      <g>
        <path class="cls-1" d="M10.18,3.81a10.27,10.27,0,0,1,2.61-.87"/>
        <g>
          <g class="cls-4">
            <path class="cls-5" d="M12.79,2.94A13,13,0,1,1,6.4,6.45"/>
          </g>
          <path class="cls-6" d="M21.65,13.69a6.34,6.34,0,0,1-1.55,6.46,6.15,6.15,0,0,1-1.4,1.06"/>
          <g class="cls-8">
            <path class="cls-9" d="M15.74,22a6.36,6.36,0,1,1,5.91-8.32"/>
          </g>
          <circle class="cls-10" cx="6.42" cy="6.45" r="1.97"/>
          <circle class="cls-10" cx="15.64" cy="28.62" r="2"/>
          <circle class="cls-10" cx="15.61" cy="15.71" r="3"/>
        </g>
      </g>
    </mask>
  </defs>
  <title>mqFavicon</title>
  <g class="cls-11">
    <path class="cls-12" d="M-.15-.1V31.41H31.36V-.1Z"/>
  </g>
</svg>
