<?xml version="1.0" encoding="utf-8"?>
<svg width="32" height="32" version="1.1" id="Layer_1" xmlns="http://www.w3.org/2000/svg" xmlns:xlink="http://www.w3.org/1999/xlink" x="0px" y="0px"
	 viewBox="0 0 1686 1759.4" style="enable-background:new 0 0 1686 1759.4;" xml:space="preserve">
<style type="text/css">
	.st0{fill:#8CD211;}
	.st1{fill:#20343E;}
	.st2{fill:#5AAAFA;}
</style>
<g>
	<path class="st0" d="M1403.8,1122.8l-525.2,272.4V856L1403.8,581V1122.8z"/>
	<path class="st1" d="M792.2,1395.3l-483.5-250V606l483.5,250V1395.3z"/>
	<path class="st2" d="M1665,428l-508.7-261.2l-169.3,86l497.5,255.9v914.6l180.5-92L1665,428z"/>
	<path class="st0" d="M1403.8,1214.8l-567,294.6L2.9,1078.6l-2.8,255.6l831,425.2l572.6-291.8V1214.8z"/>
	<path class="st1" d="M1061.8,119.4L831.2,0L2.9,428L0.1,986.9l225.1,113.8V553L1061.8,119.4z"/>
	<path class="st2" d="M836.8,786.8l-442-228.2l503.1-258.4l439.2,227.9L836.8,786.8z"/>
</g>
</svg>
