<?xml version="1.0" encoding="UTF-8"?>
<svg width="16px" height="16px" viewBox="0 0 16 16" version="1.1" xmlns="http://www.w3.org/2000/svg" xmlns:xlink="http://www.w3.org/1999/xlink">
    <!-- Generator: Sketch 53.2 (72643) - https://sketchapp.com -->
    <title>scaling</title>
    <desc>Created with Sketch.</desc>
    <defs>
        <path d="M6.5,8.5 L3.5,8.5 C2.95,8.5 2.5,8.95 2.5,9.5 L2.5,12.5 C2.5,13.05 2.95,13.5 3.5,13.5 L6.5,13.5 C7.05,13.5 7.5,13.05 7.5,12.5 L7.5,9.5 C7.5,8.95 7.05,8.5 6.5,8.5 Z M3.5,12.5 L3.5,9.5 L6.5,9.5 L6.5,12.5 L3.5,12.5 Z M9.5,10.5 L12.5,10.5 L12.5,3.5 L5.5,3.5 L5.5,6.5 L4.5,6.5 L4.5,3.5 C4.5,2.95 4.95,2.5 5.5,2.5 L12.5,2.5 C13.05,2.5 13.5,2.95 13.5,3.5 L13.5,10.5 C13.5,11.05 13.05,11.5 12.5,11.5 L9.5,11.5 L9.5,10.5 Z" id="path-1"></path>
    </defs>
    <g id="scaling" stroke="none" stroke-width="1" fill="none" fill-rule="evenodd">
        <mask id="mask-2" fill="white">
            <use xlink:href="#path-1"></use>
        </mask>
        <use id="icon-color" fill="#0062FF" xlink:href="#path-1"></use>
    </g>
</svg>