<svg xmlns="http://www.w3.org/2000/svg" xmlns:xlink="http://www.w3.org/1999/xlink" width="32" height="32" viewBox="0 0 32 32">
  <defs>
    <style>
      .cls-1 {
        fill: url(#linear-gradient);
        filter: url(#luminosity-noclip);
      }

      .cls-2, .cls-4 {
        fill: none;
        stroke: #fff;
        stroke-width: 2px;
      }

      .cls-2 {
        stroke-miterlimit: 10;
      }

      .cls-3 {
        mask: url(#mask);
      }

      .cls-4 {
        stroke-linejoin: round;
      }

      .cls-5 {
        fill: #fff;
      }
    </style>
    <linearGradient id="linear-gradient" x1="2522.5" y1="5484.16" x2="2534.39" y2="5484.16" gradientTransform="matrix(-0.62, -0.49, 0.62, -0.79, -1813.06, 5548.04)" gradientUnits="userSpaceOnUse">
      <stop offset="0" stop-opacity="0"/>
      <stop offset="0.83"/>
    </linearGradient>
    <filter id="luminosity-noclip" x="15.99" y="6" width="10.33" height="23.98" filterUnits="userSpaceOnUse" color-interpolation-filters="sRGB">
      <feFlood flood-color="#fff" result="bg"/>
      <feBlend in="SourceGraphic" in2="bg"/>
    </filter>
    <mask id="mask" x="15.99" y="6" width="10.33" height="23.98" maskUnits="userSpaceOnUse">
      <polygon class="cls-1" points="26.32 11.66 18.97 6 16 9.65 23.35 15.31 26.32 11.66"/>
    </mask>
  </defs>
  <title>es</title>
  <g id="icons_Dark">
    <path class="cls-2" d="M17,25a8,8,0,0,1-6.23-3"/>
    <g class="cls-3">
      <path class="cls-4" d="M25,17c0,5-4,9-8,12V24"/>
    </g>
    <path id="es_leftCircle" class="cls-2" d="M5,15a2,2,0,1,0,2,2A2,2,0,0,0,5,15Z"/>
    <path id="es_leftCircle-2" data-name="es_leftCircle" class="cls-2" d="M17,3a2,2,0,1,0,2,2A2,2,0,0,0,17,3Z"/>
    <rect class="cls-5" x="6.76" y="15.99" width="8.24" height="2"/>
    <rect class="cls-5" x="13" y="9.99" width="8" height="2" transform="translate(27.99 -6.01) rotate(90)"/>
    <rect class="cls-5" x="7.13" y="10.76" width="9.19" height="2" transform="translate(11.75 -4.85) rotate(45)"/>
    <path id="es_leftCircle-3" data-name="es_leftCircle" class="cls-2" d="M7,5A2,2,0,1,0,9,7,2,2,0,0,0,7,5Z"/>
    <circle class="cls-2" cx="17" cy="16.99" r="3"/>
    <path class="cls-2" d="M22,10.75A8,8,0,0,1,25,17"/>
  </g>
</svg>
