<svg xmlns="http://www.w3.org/2000/svg" xmlns:xlink="http://www.w3.org/1999/xlink" width="32" height="32" viewBox="0 0 32 32">
  <defs>
    <style>
      .cls-1 {
        filter: url(#luminosity-invert);
      }

      .cls-2, .cls-6 {
        fill: url(#linear-gradient);
      }

      .cls-3 {
        fill: url(#linear-gradient-2);
      }

      .cls-4 {
        mask: url(#mask);
      }

      .cls-12, .cls-5, .cls-8, .cls-9 {
        fill: none;
      }

      .cls-5, .cls-8 {
        stroke: #000;
      }

      .cls-12, .cls-5, .cls-9 {
        stroke-miterlimit: 10;
      }

      .cls-12, .cls-5, .cls-8 {
        stroke-width: 2px;
      }

      .cls-6 {
        filter: url(#luminosity-noclip-2);
      }

      .cls-7 {
        mask: url(#mask-2);
      }

      .cls-8 {
        stroke-linejoin: round;
      }

      .cls-9 {
        stroke: #6ea6ff;
        stroke-width: 0.02px;
      }

      .cls-10 {
        mask: url(#mask-3);
      }

      .cls-11 {
        fill: url(#linear-gradient-4);
      }

      .cls-12 {
        stroke: #f3f3f3;
      }

      .cls-13 {
        fill: #f3f3f3;
      }

      .cls-14 {
        filter: url(#luminosity-noclip);
      }
    </style>
    <linearGradient id="linear-gradient" x1="2623.58" y1="5527.89" x2="2635.47" y2="5527.89" gradientTransform="matrix(-0.62, -0.49, 0.62, -0.79, -1777.73, 5631.58)" gradientUnits="userSpaceOnUse">
      <stop offset="0" stop-opacity="0"/>
      <stop offset="0.83"/>
    </linearGradient>
    <linearGradient id="linear-gradient-2" x1="2625.73" y1="5525.91" x2="2637.62" y2="5525.91" gradientTransform="matrix(-0.62, -0.49, 0.69, -0.87, -2172.29, 6132.08)" xlink:href="#linear-gradient"/>
    <filter id="luminosity-noclip" x="5.5" y="6" width="20.82" height="19.99" filterUnits="userSpaceOnUse" color-interpolation-filters="sRGB">
      <feFlood flood-color="#fff" result="bg"/>
      <feBlend in="SourceGraphic" in2="bg"/>
    </filter>
    <mask id="mask" x="5.5" y="6" width="20.82" height="19.99" maskUnits="userSpaceOnUse">
      <g class="cls-14">
        <polygon class="cls-2" points="26.32 11.66 18.97 6 16 9.65 23.35 15.31 26.32 11.66"/>
        <polygon class="cls-3" points="16.16 21.82 8.8 16.17 5.5 20.24 12.86 25.89 16.16 21.82"/>
      </g>
    </mask>
    <filter id="luminosity-noclip-2" x="15.99" y="6" width="10.33" height="23.98" filterUnits="userSpaceOnUse" color-interpolation-filters="sRGB">
      <feFlood flood-color="#fff" result="bg"/>
      <feBlend in="SourceGraphic" in2="bg"/>
    </filter>
    <mask id="mask-2" x="15.99" y="6" width="10.33" height="23.98" maskUnits="userSpaceOnUse">
      <polygon class="cls-6" points="26.32 11.66 18.97 6 16 9.65 23.35 15.31 26.32 11.66"/>
    </mask>
    <filter id="luminosity-invert" filterUnits="userSpaceOnUse" color-interpolation-filters="sRGB">
      <feColorMatrix values="-1 0 0 0 1 0 -1 0 0 1 0 0 -1 0 1 0 0 0 1 0"/>
    </filter>
    <mask id="mask-3" x="0" y="0" width="32" height="32" maskUnits="userSpaceOnUse">
      <g class="cls-1">
        <g class="cls-4">
          <path class="cls-5" d="M17,25a8,8,0,0,1-8-8"/>
        </g>
        <g class="cls-7">
          <path class="cls-8" d="M17,9a8,8,0,0,1,8,8c0,5-4,9-8,12V24"/>
        </g>
      </g>
    </mask>
    <linearGradient id="linear-gradient-4" y1="32" x2="32" gradientUnits="userSpaceOnUse">
      <stop offset="0" stop-color="#43d1cf"/>
      <stop offset="1" stop-color="#418cff"/>
    </linearGradient>
  </defs>
  <title>es</title>
  <g id="icons_Dark">
    <g id="grid">
      <path class="cls-9" d="M32,32H0V0H32ZM1,32V0M2,32V0M3,32V0M4,32V0M5,32V0M6,32V0M7,32V0M8,32V0M9,32V0m1,32V0m1,32V0m1,32V0m1,32V0m1,32V0m1,32V0m1,32V0m1,32V0m1,32V0m1,32V0m1,32V0m1,32V0m1,32V0m1,32V0m1,32V0m1,32V0m1,32V0m1,32V0m1,32V0m1,32V0m1,32V0m1,32V0m1,31H0m32-1H0m32-1H0m32-1H0m32-1H0m32-1H0m32-1H0m32-1H0m32-1H0m32-1H0m32-1H0m32-1H0m32-1H0m32-1H0m32-1H0m32-1H0m32-1H0m32-1H0m32-1H0m32-1H0m32-1H0m32-1H0M32,9H0M32,8H0M32,7H0M32,6H0M32,5H0M32,4H0M32,3H0M32,2H0M32,1H0"/>
      <path class="cls-9" d="M0,0,32,32M0,32,32,0"/>
    </g>
    <g class="cls-10">
      <rect class="cls-11" width="32" height="32"/>
    </g>
    <path id="es_leftCircle" class="cls-12" d="M5,15a2,2,0,1,0,2,2A2,2,0,0,0,5,15Z"/>
    <path id="es_leftCircle-2" data-name="es_leftCircle" class="cls-12" d="M17,3a2,2,0,1,0,2,2A2,2,0,0,0,17,3Z"/>
    <rect class="cls-13" x="6.76" y="15.99" width="8.24" height="2"/>
    <rect class="cls-13" x="13" y="9.99" width="8" height="2" transform="translate(27.99 -6.01) rotate(90)"/>
    <rect class="cls-13" x="7.13" y="10.76" width="9.19" height="2" transform="translate(11.75 -4.85) rotate(45)"/>
    <path id="es_leftCircle-3" data-name="es_leftCircle" class="cls-12" d="M7,5A2,2,0,1,0,9,7,2,2,0,0,0,7,5Z"/>
    <circle class="cls-12" cx="17" cy="16.99" r="3"/>
  </g>
</svg>
