<svg xmlns="http://www.w3.org/2000/svg" xmlns:xlink="http://www.w3.org/1999/xlink" width="640" height="352" viewBox="0 0 640 352">
  <defs>
    <style nonce="{{ styleNonce }}">
      .cls-1, .cls-20, .cls-21, .cls-22, .cls-23, .cls-24, .cls-4, .cls-6 {
        fill: #3c6df0;
      }

      .cls-1, .cls-2 {
        clip-rule: evenodd;
      }

      .cls-11, .cls-2, .cls-9 {
        fill: #007d79;
      }

      .cls-3 {
        fill: #e7e9f7;
      }

      .cls-4, .cls-9 {
        fill-rule: evenodd;
      }

      .cls-5 {
        clip-path: url(#clip-path);
      }

      .cls-7 {
        clip-path: url(#clip-path-2);
      }

      .cls-8 {
        clip-path: url(#clip-path-3);
      }

      .cls-10 {
        clip-path: url(#clip-path-4);
      }

      .cls-12 {
        clip-path: url(#clip-path-5);
      }

      .cls-13 {
        fill: #fff;
      }

      .cls-14 {
        fill: #f2f4f8;
      }

      .cls-15, .cls-16 {
        font-size: 12px;
        fill: #1d364d;
      }

      .cls-15 {
        font-family: IBMPlexSans, IBM Plex Sans;
      }

      .cls-16 {
        font-family: IBMPlexSans-SemiBold, IBM Plex Sans;
        font-weight: 600;
      }

      .cls-17, .cls-18, .cls-25 {
        fill: none;
        stroke-miterlimit: 10;
      }

      .cls-17, .cls-18 {
        stroke: #b0bef3;
      }

      .cls-18 {
        stroke-dasharray: 4 4;
      }

      .cls-19, .cls-26 {
        opacity: 0.4;
      }

      .cls-19 {
        fill: url(#linear-gradient);
      }

      .cls-20 {
        opacity: 0.5;
      }

      .cls-21 {
        opacity: 0.8;
      }

      .cls-22 {
        opacity: 0.9;
      }

      .cls-23 {
        opacity: 0.7;
      }

      .cls-24 {
        opacity: 0.6;
      }

      .cls-25 {
        stroke: #3c6df0;
        stroke-width: 2px;
      }

      .cls-26 {
        fill: url(#linear-gradient-2);
      }
    </style>
    <clipPath id="clip-path">
      <path class="cls-1" d="M826,172.5a2.5,2.5,0,1,1,2.5,2.5A2.48,2.48,0,0,1,826,172.5Zm9.5,3.5a3.42,3.42,0,0,0-2.1.7l-2.1-2.1a3.42,3.42,0,0,0,.7-2.1,3.5,3.5,0,1,0-3.5,3.5,3.42,3.42,0,0,0,2.1-.7l2.1,2.1a3.42,3.42,0,0,0-.7,2.1,3.5,3.5,0,1,0,3.5-3.5Z"/>
    </clipPath>
    <clipPath id="clip-path-2">
      <path class="cls-1" d="M1090,172.5a2.5,2.5,0,1,1,2.5,2.5A2.48,2.48,0,0,1,1090,172.5Zm9.5,3.5a3.42,3.42,0,0,0-2.1.7l-2.1-2.1a3.42,3.42,0,0,0,.7-2.1,3.5,3.5,0,1,0-3.5,3.5,3.42,3.42,0,0,0,2.1-.7l2.1,2.1a3.42,3.42,0,0,0-.7,2.1,3.5,3.5,0,1,0,3.5-3.5Z"/>
    </clipPath>
    <clipPath id="clip-path-3">
      <path class="cls-1" d="M1405,136.5a2.5,2.5,0,1,1,2.5,2.5A2.48,2.48,0,0,1,1405,136.5Zm9.5,3.5a3.42,3.42,0,0,0-2.1.7l-2.1-2.1a3.42,3.42,0,0,0,.7-2.1,3.5,3.5,0,1,0-3.5,3.5,3.42,3.42,0,0,0,2.1-.7l2.1,2.1a3.42,3.42,0,0,0-.7,2.1,3.5,3.5,0,1,0,3.5-3.5Z"/>
    </clipPath>
    <clipPath id="clip-path-4">
      <path class="cls-2" d="M1405,252.5a2.5,2.5,0,1,1,2.5,2.5A2.48,2.48,0,0,1,1405,252.5Zm9.5,3.5a3.42,3.42,0,0,0-2.1.7l-2.1-2.1a3.42,3.42,0,0,0,.7-2.1,3.5,3.5,0,1,0-3.5,3.5,3.42,3.42,0,0,0,2.1-.7l2.1,2.1a3.42,3.42,0,0,0-.7,2.1,3.5,3.5,0,1,0,3.5-3.5Z"/>
    </clipPath>
    <clipPath id="clip-path-5">
      <path class="cls-1" d="M1689,136.5a2.5,2.5,0,1,1,2.5,2.5A2.48,2.48,0,0,1,1689,136.5Zm9.5,3.5a3.42,3.42,0,0,0-2.1.7l-2.1-2.1a3.42,3.42,0,0,0,.7-2.1,3.5,3.5,0,1,0-3.5,3.5,3.42,3.42,0,0,0,2.1-.7l2.1,2.1a3.42,3.42,0,0,0-.7,2.1,3.5,3.5,0,1,0,3.5-3.5Z"/>
    </clipPath>
    <linearGradient id="linear-gradient" x1="96.18" y1="163.99" x2="240" y2="163.99" gradientUnits="userSpaceOnUse">
      <stop offset="0" stop-color="#3c6df0"/>
      <stop offset="0.67" stop-color="#3c6df0" stop-opacity="0.2"/>
      <stop offset="1" stop-color="#3c6df0" stop-opacity="0"/>
    </linearGradient>
    <linearGradient id="linear-gradient-2" x1="244" y1="163.99" x2="388.18" y2="163.99" gradientTransform="matrix(-1, 0, 0, 1, 796.05, 0)" xlink:href="#linear-gradient"/>
  </defs>
  <title>Kafka_Connect_Basics</title>
  <g id="Layer_3" data-name="Layer 3">
    <rect class="cls-3" width="640" height="352"/>
  </g>
  <g id="Layer_1" data-name="Layer 1">
    <g>
      <path class="cls-4" d="M826,172.5a2.5,2.5,0,1,1,2.5,2.5A2.48,2.48,0,0,1,826,172.5Zm9.5,3.5a3.42,3.42,0,0,0-2.1.7l-2.1-2.1a3.42,3.42,0,0,0,.7-2.1,3.5,3.5,0,1,0-3.5,3.5,3.42,3.42,0,0,0,2.1-.7l2.1,2.1a3.42,3.42,0,0,0-.7,2.1,3.5,3.5,0,1,0,3.5-3.5Z"/>
      <g class="cls-5">
        <rect class="cls-6" x="-303" y="-469" width="1440" height="1027"/>
      </g>
    </g>
    <g>
      <path class="cls-4" d="M1090,172.5a2.5,2.5,0,1,1,2.5,2.5A2.48,2.48,0,0,1,1090,172.5Zm9.5,3.5a3.42,3.42,0,0,0-2.1.7l-2.1-2.1a3.42,3.42,0,0,0,.7-2.1,3.5,3.5,0,1,0-3.5,3.5,3.42,3.42,0,0,0,2.1-.7l2.1,2.1a3.42,3.42,0,0,0-.7,2.1,3.5,3.5,0,1,0,3.5-3.5Z"/>
      <g class="cls-7">
        <rect class="cls-6" x="-39" y="-469" width="1440" height="1027"/>
      </g>
    </g>
    <g>
      <g>
        <path class="cls-4" d="M1405,136.5a2.5,2.5,0,1,1,2.5,2.5A2.48,2.48,0,0,1,1405,136.5Zm9.5,3.5a3.42,3.42,0,0,0-2.1.7l-2.1-2.1a3.42,3.42,0,0,0,.7-2.1,3.5,3.5,0,1,0-3.5,3.5,3.42,3.42,0,0,0,2.1-.7l2.1,2.1a3.42,3.42,0,0,0-.7,2.1,3.5,3.5,0,1,0,3.5-3.5Z"/>
        <g class="cls-8">
          <rect class="cls-6" x="276" y="-505" width="1440" height="1027"/>
        </g>
      </g>
      <g>
        <path class="cls-9" d="M1405,252.5a2.5,2.5,0,1,1,2.5,2.5A2.48,2.48,0,0,1,1405,252.5Zm9.5,3.5a3.42,3.42,0,0,0-2.1.7l-2.1-2.1a3.42,3.42,0,0,0,.7-2.1,3.5,3.5,0,1,0-3.5,3.5,3.42,3.42,0,0,0,2.1-.7l2.1,2.1a3.42,3.42,0,0,0-.7,2.1,3.5,3.5,0,1,0,3.5-3.5Z"/>
        <g class="cls-10">
          <rect class="cls-11" x="276" y="-389" width="1440" height="1027"/>
        </g>
      </g>
    </g>
    <g>
      <path class="cls-4" d="M1689,136.5a2.5,2.5,0,1,1,2.5,2.5A2.48,2.48,0,0,1,1689,136.5Zm9.5,3.5a3.42,3.42,0,0,0-2.1.7l-2.1-2.1a3.42,3.42,0,0,0,.7-2.1,3.5,3.5,0,1,0-3.5,3.5,3.42,3.42,0,0,0,2.1-.7l2.1,2.1a3.42,3.42,0,0,0-.7,2.1,3.5,3.5,0,1,0,3.5-3.5Z"/>
      <g class="cls-12">
        <rect class="cls-6" x="560" y="-505" width="1440" height="1027"/>
      </g>
    </g>
    <g>
      <polygon class="cls-13" points="216.68 295.34 216.68 48.5 431.5 48.5 431.5 295.5 216.68 295.34"/>
      <path class="cls-14" d="M431,49V295l-213.82-.16V49H431m1-1H216.18V295.84L432,296V48Z"/>
    </g>
    <text class="cls-15" transform="translate(33.8 276.01)">External systems</text>
    <text class="cls-16" transform="translate(270.69 279.75)">IBM Event Streams</text>
    <path class="cls-14" d="M407,81V247H241V81H407m1-1H240V248H408V80Z"/>
    <rect class="cls-6" x="256.18" y="216" width="16" height="16"/>
    <rect class="cls-6" x="280.18" y="216" width="16" height="16"/>
    <rect class="cls-6" x="256.18" y="192" width="16" height="16"/>
    <rect class="cls-6" x="280.18" y="192" width="16" height="16"/>
    <rect class="cls-6" x="304.18" y="192" width="16" height="16"/>
    <rect class="cls-6" x="328.18" y="192" width="16" height="16"/>
    <rect class="cls-6" x="352.18" y="192" width="16" height="16"/>
    <rect class="cls-6" x="376.18" y="192" width="16" height="16"/>
    <rect class="cls-6" x="256.18" y="168" width="16" height="16"/>
    <rect class="cls-6" x="280.18" y="168" width="16" height="16"/>
    <rect class="cls-6" x="304.18" y="168" width="16" height="16"/>
    <rect class="cls-6" x="328.18" y="168" width="16" height="16"/>
    <rect class="cls-6" x="352.18" y="168" width="16" height="16"/>
    <rect class="cls-6" x="376.18" y="168" width="16" height="16"/>
    <rect class="cls-6" x="256.18" y="144" width="16" height="16"/>
    <rect class="cls-6" x="280.18" y="144" width="16" height="16"/>
    <rect class="cls-6" x="304.18" y="144" width="16" height="16"/>
    <rect class="cls-6" x="328.18" y="144" width="16" height="16"/>
    <rect class="cls-6" x="352.18" y="144" width="16" height="16"/>
    <rect class="cls-6" x="376.18" y="144" width="16" height="16"/>
    <rect class="cls-6" x="256.18" y="120" width="16" height="16"/>
    <rect class="cls-6" x="280.18" y="120" width="16" height="16"/>
    <rect class="cls-6" x="304.18" y="120" width="16" height="16"/>
    <rect class="cls-6" x="328.18" y="120" width="16" height="16"/>
    <rect class="cls-6" x="352.18" y="120" width="16" height="16"/>
    <rect class="cls-6" x="376.18" y="120" width="16" height="16"/>
    <rect class="cls-6" x="256.18" y="96" width="16" height="16"/>
    <rect class="cls-6" x="280.18" y="96" width="16" height="16"/>
    <rect class="cls-6" x="304.18" y="96" width="16" height="16"/>
    <rect class="cls-6" x="328.18" y="96" width="16" height="16"/>
    <rect class="cls-6" x="352.18" y="96" width="16" height="16"/>
    <rect class="cls-6" x="376.18" y="96" width="16" height="16"/>
    <g>
      <line class="cls-17" x1="159.5" y1="48" x2="159.5" y2="50"/>
      <line class="cls-18" x1="159.5" y1="54" x2="159.5" y2="292"/>
      <line class="cls-17" x1="159.5" y1="294" x2="159.5" y2="296"/>
    </g>
    <g>
      <line class="cls-17" x1="488.5" y1="48" x2="488.5" y2="50"/>
      <line class="cls-18" x1="488.5" y1="54" x2="488.5" y2="292"/>
      <line class="cls-17" x1="488.5" y1="294" x2="488.5" y2="296"/>
    </g>
    <path class="cls-19" d="M240,248c-40,0-45.82-68-143.82-68V148c98.09-.7,94.91-69,143.82-68Z"/>
    <g>
      <rect class="cls-13" x="64.5" y="148.5" width="31" height="31"/>
      <path class="cls-14" d="M95,149v30H65V149H95m1-1H64v32H96V148Z"/>
    </g>
    <rect class="cls-20" x="110.87" y="155.76" width="4.35" height="4.35" transform="matrix(0.97, 0.26, -0.26, 0.97, 44.73, -23.88)"/>
    <rect class="cls-21" x="166.47" y="180.38" width="6.37" height="6.37" transform="translate(253.04 -52.08) rotate(62.23)"/>
    <rect class="cls-6" x="223.72" y="219.64" width="7.93" height="7.93" transform="translate(-67.78 103.01) rotate(-22.28)"/>
    <rect class="cls-21" x="168.83" y="140.03" width="7.06" height="7.06" transform="translate(204.51 -78.44) rotate(58.45)"/>
    <rect class="cls-22" x="183.77" y="193.4" width="8.73" height="8.73" transform="matrix(0.98, 0.18, -0.18, 0.98, 39.71, -31.31)"/>
    <rect class="cls-21" x="140.27" y="152" width="4" height="4" transform="translate(-57.94 91.77) rotate(-30)"/>
    <rect class="cls-21" x="154.62" y="170.41" width="5.87" height="5.87" transform="translate(-72.81 130.87) rotate(-37.29)"/>
    <rect class="cls-23" x="129.27" y="170" width="4" height="4" transform="translate(99.98 -42.1) rotate(29.04)"/>
    <rect class="cls-23" x="125.27" y="152" width="4" height="4" transform="translate(-59.95 84.27) rotate(-30)"/>
    <rect class="cls-21" x="145.29" y="174.97" width="4.1" height="4.1" transform="translate(2.41 -1.98) rotate(0.78)"/>
    <rect class="cls-6" x="218.5" y="103.91" width="12.17" height="12.17" transform="translate(-24.91 127.03) rotate(-30)"/>
    <rect class="cls-21" x="159.33" y="152.56" width="4.52" height="4.52" transform="translate(45.58 -36.55) rotate(15)"/>
    <rect class="cls-22" x="188.41" y="148" width="4.63" height="4.63" transform="translate(162.95 391.56) rotate(-121.68)"/>
    <rect class="cls-22" x="204" y="203.86" width="13.21" height="13.21" transform="translate(-47.2 359.42) rotate(-75)"/>
    <rect class="cls-22" x="194.27" y="112.52" width="9.21" height="9.21" transform="translate(101.37 326.31) rotate(-95.5)"/>
    <rect class="cls-22" x="181.79" y="125.54" width="7.5" height="7.5" transform="translate(55.79 -55.93) rotate(20.12)"/>
    <rect class="cls-21" x="153.27" y="145" width="4" height="4" transform="translate(-52.7 97.33) rotate(-30)"/>
    <rect class="cls-24" x="99.91" y="168.63" width="2" height="2" transform="translate(298.27 167.06) rotate(120)"/>
    <rect class="cls-23" x="114.2" y="173.01" width="4.04" height="4.04" transform="translate(-88.11 223.95) rotate(-69.88)"/>
    <rect class="cls-24" x="101.91" y="153.63" width="2" height="2" transform="matrix(0.87, -0.5, 0.5, 0.87, -63.53, 72.17)"/>
    <rect class="cls-20" x="107.09" y="167.32" width="3" height="3" transform="translate(-69.86 76.91) rotate(-30)"/>
    <g>
      <path class="cls-25" d="M212,164H96"/>
      <polygon class="cls-6" points="216 164 208 159 208 169 216 164"/>
    </g>
    <rect class="cls-6" x="72.27" y="156" width="16" height="16"/>
    <text class="cls-15" transform="translate(521.85 276.01)">External systems</text>
    <path class="cls-26" d="M407.87,248c40,0,46.18-68,144.18-68V148c-98.09-.7-95.27-69-144.18-68Z"/>
    <g>
      <rect class="cls-13" x="552.55" y="148.5" width="31" height="31"/>
      <path class="cls-14" d="M583.05,149v30h-30V149h30m1-1h-32v32h32V148Z"/>
    </g>
    <rect class="cls-20" x="532.84" y="152.76" width="4.35" height="4.35" transform="translate(1091.89 166.13) rotate(165)"/>
    <rect class="cls-21" x="477.21" y="184.38" width="6.37" height="6.37" transform="translate(870.18 -150.11) rotate(117.77)"/>
    <rect class="cls-6" x="416.4" y="219.64" width="7.93" height="7.93" transform="translate(824.2 -28.64) rotate(120)"/>
    <rect class="cls-21" x="472.15" y="147.03" width="7.06" height="7.06" transform="translate(852.9 -176.01) rotate(121.55)"/>
    <rect class="cls-22" x="455.54" y="190.4" width="8.73" height="8.73" transform="translate(853.74 501.93) rotate(-165)"/>
    <rect class="cls-21" x="502.78" y="152" width="4" height="4" transform="translate(864.93 539.76) rotate(-150)"/>
    <rect class="cls-21" x="464.78" y="177" width="4" height="4" transform="translate(781.52 567.41) rotate(-150)"/>
    <rect class="cls-21" x="481.57" y="172.41" width="5.87" height="5.87" transform="translate(763.76 608.36) rotate(-142.71)"/>
    <rect class="cls-23" x="510.78" y="170" width="4" height="4" transform="translate(1044.59 73.5) rotate(150.96)"/>
    <rect class="cls-23" x="518.78" y="153" width="4" height="4" transform="translate(894.28 549.62) rotate(-150)"/>
    <rect class="cls-21" x="498.66" y="174.97" width="4.1" height="4.1" transform="translate(1003.77 347.24) rotate(179.22)"/>
    <rect class="cls-6" x="417.38" y="103.91" width="12.17" height="12.17" transform="translate(849.4 10.02) rotate(152.23)"/>
    <rect class="cls-22" x="430.84" y="203.86" width="13.21" height="13.21" transform="translate(120.93 578.53) rotate(-75)"/>
    <rect class="cls-22" x="441.57" y="115.52" width="9.21" height="9.21" transform="translate(283.81 552.72) rotate(-84.5)"/>
    <rect class="cls-22" x="458.77" y="128.54" width="7.5" height="7.5" transform="translate(942.31 97.43) rotate(159.88)"/>
    <rect class="cls-21" x="493.78" y="142" width="4" height="4" transform="translate(853.13 516.6) rotate(-150)"/>
    <rect class="cls-24" x="545.14" y="171.63" width="2" height="2" transform="translate(422.58 -386.66) rotate(60)"/>
    <rect class="cls-23" x="525.82" y="172.01" width="4.04" height="4.04" transform="translate(545.97 729.52) rotate(-110.12)"/>
    <rect class="cls-24" x="546.14" y="154.63" width="2" height="2" transform="translate(943.17 563.99) rotate(-150)"/>
    <rect class="cls-20" x="535.96" y="171.32" width="3" height="3" transform="translate(916.51 591.21) rotate(-150)"/>
    <g>
      <path class="cls-25" d="M548,164H432"/>
      <polygon class="cls-6" points="552 164 544 159 544 169 552 164"/>
    </g>
    <rect class="cls-6" x="559.78" y="156" width="16" height="16" transform="translate(1135.55 328) rotate(180)"/>
  </g>
</svg>
