<svg xmlns="http://www.w3.org/2000/svg" xmlns:xlink="http://www.w3.org/1999/xlink" width="640" height="352" viewBox="0 0 640 352">
  <defs>
    <style nonce="{{ styleNonce }}">
      .cls-1, .cls-14, .cls-2 {
        fill: #3c6df0;
      }

      .cls-1, .cls-3 {
        clip-rule: evenodd;
      }

      .cls-20, .cls-22, .cls-3 {
        fill: #007d79;
      }

      .cls-4 {
        fill: #e7e9f7;
      }

      .cls-12, .cls-5 {
        font-size: 12px;
        fill: #1d364d;
      }

      .cls-5 {
        font-family: IBMPlexSans-SemiBold, IBM Plex Sans;
        font-weight: 600;
      }

      .cls-12, .cls-6 {
        font-family: IBMPlexSans, IBM Plex Sans;
      }

      .cls-6 {
        font-weight: 400;
      }

      .cls-13, .cls-7, .cls-8, .cls-9 {
        fill: none;
        stroke-miterlimit: 10;
      }

      .cls-7, .cls-8, .cls-9 {
        stroke: #b0bef3;
      }

      .cls-8 {
        stroke-dasharray: 4.11 4.11;
      }

      .cls-9 {
        stroke-dasharray: 3.97 3.97;
      }

      .cls-10 {
        fill: #fff;
      }

      .cls-11 {
        fill: #f2f4f8;
      }

      .cls-13 {
        stroke: #3c6df0;
        stroke-width: 2px;
      }

      .cls-14, .cls-20 {
        fill-rule: evenodd;
      }

      .cls-15 {
        clip-path: url(#clip-path);
      }

      .cls-16 {
        clip-path: url(#clip-path-2);
      }

      .cls-17 {
        clip-path: url(#clip-path-3);
      }

      .cls-18 {
        clip-path: url(#clip-path-4);
      }

      .cls-19 {
        clip-path: url(#clip-path-5);
      }

      .cls-21 {
        clip-path: url(#clip-path-6);
      }

      .cls-23 {
        clip-path: url(#clip-path-7);
      }

      .cls-24 {
        clip-path: url(#clip-path-8);
      }

      .cls-25 {
        clip-path: url(#clip-path-9);
      }

      .cls-26 {
        clip-path: url(#clip-path-10);
      }

      .cls-27 {
        clip-path: url(#clip-path-11);
      }

      .cls-28 {
        clip-path: url(#clip-path-12);
      }

      .cls-29 {
        clip-path: url(#clip-path-13);
      }
    </style>
    <clipPath id="clip-path">
      <path class="cls-1" d="M182,172.5a2.5,2.5,0,1,1,2.5,2.5A2.48,2.48,0,0,1,182,172.5Zm9.5,3.5a3.42,3.42,0,0,0-2.1.7l-2.1-2.1a3.42,3.42,0,0,0,.7-2.1,3.5,3.5,0,1,0-3.5,3.5,3.42,3.42,0,0,0,2.1-.7l2.1,2.1a3.42,3.42,0,0,0-.7,2.1,3.5,3.5,0,1,0,3.5-3.5Z"/>
    </clipPath>
    <clipPath id="clip-path-2">
      <rect class="cls-2" x="-947" y="-469" width="1440" height="1027"/>
    </clipPath>
    <clipPath id="clip-path-3">
      <path class="cls-1" d="M446,172.5a2.5,2.5,0,1,1,2.5,2.5A2.48,2.48,0,0,1,446,172.5Zm9.5,3.5a3.42,3.42,0,0,0-2.1.7l-2.1-2.1a3.42,3.42,0,0,0,.7-2.1,3.5,3.5,0,1,0-3.5,3.5,3.42,3.42,0,0,0,2.1-.7l2.1,2.1a3.42,3.42,0,0,0-.7,2.1,3.5,3.5,0,1,0,3.5-3.5Z"/>
    </clipPath>
    <clipPath id="clip-path-4">
      <rect class="cls-2" x="-683" y="-469" width="1440" height="1027"/>
    </clipPath>
    <clipPath id="clip-path-5">
      <path class="cls-1" d="M761,136.5a2.5,2.5,0,1,1,2.5,2.5A2.48,2.48,0,0,1,761,136.5Zm9.5,3.5a3.42,3.42,0,0,0-2.1.7l-2.1-2.1a3.42,3.42,0,0,0,.7-2.1,3.5,3.5,0,1,0-3.5,3.5,3.42,3.42,0,0,0,2.1-.7l2.1,2.1a3.42,3.42,0,0,0-.7,2.1,3.5,3.5,0,1,0,3.5-3.5Z"/>
    </clipPath>
    <clipPath id="clip-path-6">
      <path class="cls-3" d="M761,252.5a2.5,2.5,0,1,1,2.5,2.5A2.48,2.48,0,0,1,761,252.5Zm9.5,3.5a3.42,3.42,0,0,0-2.1.7l-2.1-2.1a3.42,3.42,0,0,0,.7-2.1,3.5,3.5,0,1,0-3.5,3.5,3.42,3.42,0,0,0,2.1-.7l2.1,2.1a3.42,3.42,0,0,0-.7,2.1,3.5,3.5,0,1,0,3.5-3.5Z"/>
    </clipPath>
    <clipPath id="clip-path-7">
      <path class="cls-1" d="M1045,136.5a2.5,2.5,0,1,1,2.5,2.5A2.48,2.48,0,0,1,1045,136.5Zm9.5,3.5a3.42,3.42,0,0,0-2.1.7l-2.1-2.1a3.42,3.42,0,0,0,.7-2.1,3.5,3.5,0,1,0-3.5,3.5,3.42,3.42,0,0,0,2.1-.7l2.1,2.1a3.42,3.42,0,0,0-.7,2.1,3.5,3.5,0,1,0,3.5-3.5Z"/>
    </clipPath>
    <clipPath id="clip-path-8">
      <path class="cls-3" d="M1185,222.5a2.5,2.5,0,1,1,2.5,2.5A2.48,2.48,0,0,1,1185,222.5Zm9.5,3.5a3.42,3.42,0,0,0-2.1.7l-2.1-2.1a3.42,3.42,0,0,0,.7-2.1,3.5,3.5,0,1,0-3.5,3.5,3.42,3.42,0,0,0,2.1-.7l2.1,2.1a3.42,3.42,0,0,0-.7,2.1,3.5,3.5,0,1,0,3.5-3.5Z"/>
    </clipPath>
    <clipPath id="clip-path-9">
      <path class="cls-1" d="M1602,172.5a2.5,2.5,0,1,1,2.5,2.5A2.48,2.48,0,0,1,1602,172.5Zm9.5,3.5a3.42,3.42,0,0,0-2.1.7l-2.1-2.1a3.42,3.42,0,0,0,.7-2.1,3.5,3.5,0,1,0-3.5,3.5,3.42,3.42,0,0,0,2.1-.7l2.1,2.1a3.42,3.42,0,0,0-.7,2.1,3.5,3.5,0,1,0,3.5-3.5Z"/>
    </clipPath>
    <clipPath id="clip-path-10">
      <path class="cls-1" d="M1602,252.5a2.5,2.5,0,1,1,2.5,2.5A2.48,2.48,0,0,1,1602,252.5Zm9.5,3.5a3.42,3.42,0,0,0-2.1.7l-2.1-2.1a3.42,3.42,0,0,0,.7-2.1,3.5,3.5,0,1,0-3.5,3.5,3.42,3.42,0,0,0,2.1-.7l2.1,2.1a3.42,3.42,0,0,0-.7,2.1,3.5,3.5,0,1,0,3.5-3.5Z"/>
    </clipPath>
    <clipPath id="clip-path-11">
      <path class="cls-1" d="M1602,332.5a2.5,2.5,0,1,1,2.5,2.5A2.48,2.48,0,0,1,1602,332.5Zm9.5,3.5a3.42,3.42,0,0,0-2.1.7l-2.1-2.1a3.42,3.42,0,0,0,.7-2.1,3.5,3.5,0,1,0-3.5,3.5,3.42,3.42,0,0,0,2.1-.7l2.1,2.1a3.42,3.42,0,0,0-.7,2.1,3.5,3.5,0,1,0,3.5-3.5Z"/>
    </clipPath>
    <clipPath id="clip-path-12">
      <path class="cls-1" d="M1602,92.5a2.5,2.5,0,1,1,2.5,2.5A2.48,2.48,0,0,1,1602,92.5Zm9.5,3.5a3.42,3.42,0,0,0-2.1.7l-2.1-2.1a3.42,3.42,0,0,0,.7-2.1,3.5,3.5,0,1,0-3.5,3.5,3.42,3.42,0,0,0,2.1-.7l2.1,2.1a3.42,3.42,0,0,0-.7,2.1,3.5,3.5,0,1,0,3.5-3.5Z"/>
    </clipPath>
    <clipPath id="clip-path-13">
      <path class="cls-1" d="M1602,12.5a2.5,2.5,0,1,1,2.5,2.5A2.48,2.48,0,0,1,1602,12.5Zm9.5,3.5a3.42,3.42,0,0,0-2.1.7l-2.1-2.1a3.42,3.42,0,0,0,.7-2.1,3.5,3.5,0,1,0-3.5,3.5,3.42,3.42,0,0,0,2.1-.7l2.1,2.1a3.42,3.42,0,0,0-.7,2.1,3.5,3.5,0,1,0,3.5-3.5Z"/>
    </clipPath>
  </defs>
  <title>Kafka_Connect_Basics</title>
  <g id="Layer_3" data-name="Layer 3">
    <rect class="cls-4" width="640" height="352"/>
  </g>
  <g id="Layer_1" data-name="Layer 1">
    <text class="cls-5" transform="translate(168.64 72.01)">Source<tspan class="cls-6"><tspan x="-7.82" y="14">connector</tspan></tspan></text>
    <text class="cls-5" transform="translate(439.78 72.01)">Sink<tspan class="cls-6"><tspan x="-14.95" y="14">connector</tspan></tspan></text>
    <g>
      <polyline class="cls-7" points="44.5 106.5 44.5 104.5 46.5 104.5"/>
      <line class="cls-8" x1="50.61" y1="104.5" x2="155.44" y2="104.5"/>
      <polyline class="cls-7" points="157.5 104.5 159.5 104.5 159.5 106.5"/>
      <line class="cls-9" x1="159.5" y1="110.47" x2="159.5" y2="243.51"/>
      <polyline class="cls-7" points="159.5 245.5 159.5 247.5 157.5 247.5"/>
      <line class="cls-8" x1="153.39" y1="247.5" x2="48.56" y2="247.5"/>
      <polyline class="cls-7" points="46.5 247.5 44.5 247.5 44.5 245.5"/>
      <line class="cls-9" x1="44.5" y1="241.53" x2="44.5" y2="108.49"/>
    </g>
    <g>
      <rect class="cls-10" x="172.5" y="160.5" width="31" height="31"/>
      <path class="cls-11" d="M203,161v30H173V161h30m1-1H172v32h32V160Z"/>
    </g>
    <g>
      <rect class="cls-10" x="216.5" y="100.5" width="207" height="151"/>
      <path class="cls-11" d="M423,101V251H217V101H423m1-1H216V252H424V100Z"/>
    </g>
    <text class="cls-12" transform="translate(273.31 236.01)">IBM Event Streams</text>
    <g>
      <path class="cls-11" d="M407,141v70H241V141H407m1-1H240v72H408V140Z"/>
      <rect class="cls-2" x="256" y="180" width="16" height="16"/>
      <rect class="cls-2" x="280" y="180" width="16" height="16"/>
      <rect class="cls-2" x="304" y="180" width="16" height="16"/>
      <rect class="cls-2" x="328" y="180" width="16" height="16"/>
      <rect class="cls-2" x="256" y="156" width="16" height="16"/>
      <rect class="cls-2" x="280" y="156" width="16" height="16"/>
      <rect class="cls-2" x="304" y="156" width="16" height="16"/>
      <rect class="cls-2" x="328" y="156" width="16" height="16"/>
      <rect class="cls-2" x="352" y="156" width="16" height="16"/>
      <rect class="cls-2" x="376" y="156" width="16" height="16"/>
    </g>
    <text class="cls-12" transform="translate(58.72 236.01)">External system</text>
    <g>
      <rect class="cls-10" x="88.5" y="160.5" width="31" height="31"/>
      <path class="cls-11" d="M119,161v30H89V161h30m1-1H88v32h32V160Z"/>
    </g>
    <rect class="cls-2" x="96" y="168" width="16" height="16"/>
    <g>
      <path class="cls-13" d="M164,176H120"/>
      <polygon class="cls-2" points="172 176 164 171 164 181 172 176"/>
    </g>
    <g>
      <path class="cls-13" d="M236,176H204"/>
      <polygon class="cls-2" points="240 176 232 171 232 181 240 176"/>
    </g>
    <g>
      <path class="cls-14" d="M182,172.5a2.5,2.5,0,1,1,2.5,2.5A2.48,2.48,0,0,1,182,172.5Zm9.5,3.5a3.42,3.42,0,0,0-2.1.7l-2.1-2.1a3.42,3.42,0,0,0,.7-2.1,3.5,3.5,0,1,0-3.5,3.5,3.42,3.42,0,0,0,2.1-.7l2.1,2.1a3.42,3.42,0,0,0-.7,2.1,3.5,3.5,0,1,0,3.5-3.5Z"/>
      <g class="cls-15">
        <g>
          <rect class="cls-2" x="-947" y="-469" width="1440" height="1027"/>
          <g class="cls-16">
            <rect class="cls-2" x="176" y="164" width="24" height="24"/>
          </g>
        </g>
      </g>
    </g>
    <g>
      <polyline class="cls-7" points="595.5 106.5 595.5 104.5 593.5 104.5"/>
      <line class="cls-8" x1="589.39" y1="104.5" x2="484.56" y2="104.5"/>
      <polyline class="cls-7" points="482.5 104.5 480.5 104.5 480.5 106.5"/>
      <line class="cls-9" x1="480.5" y1="110.47" x2="480.5" y2="243.51"/>
      <polyline class="cls-7" points="480.5 245.5 480.5 247.5 482.5 247.5"/>
      <line class="cls-8" x1="486.61" y1="247.5" x2="591.44" y2="247.5"/>
      <polyline class="cls-7" points="593.5 247.5 595.5 247.5 595.5 245.5"/>
      <line class="cls-9" x1="595.5" y1="241.53" x2="595.5" y2="108.49"/>
    </g>
    <g>
      <rect class="cls-10" x="436.5" y="160.5" width="31" height="31"/>
      <path class="cls-11" d="M467,161v30H437V161h30m1-1H436v32h32V160Z"/>
    </g>
    <text class="cls-12" transform="translate(494.72 236.01)">External system</text>
    <g>
      <rect class="cls-10" x="520.5" y="160.5" width="31" height="31"/>
      <path class="cls-11" d="M551,161v30H521V161h30m1-1H520v32h32V160Z"/>
    </g>
    <rect class="cls-2" x="528" y="168" width="16" height="16" transform="translate(1072 352) rotate(180)"/>
    <g>
      <path class="cls-13" d="M512,176H468"/>
      <polygon class="cls-2" points="520 176 512 171 512 181 520 176"/>
    </g>
    <g>
      <path class="cls-13" d="M432,176H408"/>
      <polygon class="cls-2" points="436 176 428 171 428 181 436 176"/>
    </g>
    <g>
      <path class="cls-14" d="M446,172.5a2.5,2.5,0,1,1,2.5,2.5A2.48,2.48,0,0,1,446,172.5Zm9.5,3.5a3.42,3.42,0,0,0-2.1.7l-2.1-2.1a3.42,3.42,0,0,0,.7-2.1,3.5,3.5,0,1,0-3.5,3.5,3.42,3.42,0,0,0,2.1-.7l2.1,2.1a3.42,3.42,0,0,0-.7,2.1,3.5,3.5,0,1,0,3.5-3.5Z"/>
      <g class="cls-17">
        <g>
          <rect class="cls-2" x="-683" y="-469" width="1440" height="1027"/>
          <g class="cls-18">
            <rect class="cls-2" x="440" y="164" width="24" height="24"/>
          </g>
        </g>
      </g>
    </g>
    <g>
      <g>
        <path class="cls-14" d="M761,136.5a2.5,2.5,0,1,1,2.5,2.5A2.48,2.48,0,0,1,761,136.5Zm9.5,3.5a3.42,3.42,0,0,0-2.1.7l-2.1-2.1a3.42,3.42,0,0,0,.7-2.1,3.5,3.5,0,1,0-3.5,3.5,3.42,3.42,0,0,0,2.1-.7l2.1,2.1a3.42,3.42,0,0,0-.7,2.1,3.5,3.5,0,1,0,3.5-3.5Z"/>
        <g class="cls-19">
          <rect class="cls-2" x="-368" y="-505" width="1440" height="1027"/>
        </g>
      </g>
      <g>
        <path class="cls-20" d="M761,252.5a2.5,2.5,0,1,1,2.5,2.5A2.48,2.48,0,0,1,761,252.5Zm9.5,3.5a3.42,3.42,0,0,0-2.1.7l-2.1-2.1a3.42,3.42,0,0,0,.7-2.1,3.5,3.5,0,1,0-3.5,3.5,3.42,3.42,0,0,0,2.1-.7l2.1,2.1a3.42,3.42,0,0,0-.7,2.1,3.5,3.5,0,1,0,3.5-3.5Z"/>
        <g class="cls-21">
          <rect class="cls-22" x="-368" y="-389" width="1440" height="1027"/>
        </g>
      </g>
    </g>
    <g>
      <path class="cls-14" d="M1045,136.5a2.5,2.5,0,1,1,2.5,2.5A2.48,2.48,0,0,1,1045,136.5Zm9.5,3.5a3.42,3.42,0,0,0-2.1.7l-2.1-2.1a3.42,3.42,0,0,0,.7-2.1,3.5,3.5,0,1,0-3.5,3.5,3.42,3.42,0,0,0,2.1-.7l2.1,2.1a3.42,3.42,0,0,0-.7,2.1,3.5,3.5,0,1,0,3.5-3.5Z"/>
      <g class="cls-23">
        <rect class="cls-2" x="-84" y="-505" width="1440" height="1027"/>
      </g>
    </g>
    <g>
      <path class="cls-20" d="M1185,222.5a2.5,2.5,0,1,1,2.5,2.5A2.48,2.48,0,0,1,1185,222.5Zm9.5,3.5a3.42,3.42,0,0,0-2.1.7l-2.1-2.1a3.42,3.42,0,0,0,.7-2.1,3.5,3.5,0,1,0-3.5,3.5,3.42,3.42,0,0,0,2.1-.7l2.1,2.1a3.42,3.42,0,0,0-.7,2.1,3.5,3.5,0,1,0,3.5-3.5Z"/>
      <g class="cls-24">
        <rect class="cls-22" x="56" y="-419" width="1440" height="1027"/>
      </g>
    </g>
    <g>
      <path class="cls-14" d="M1602,172.5a2.5,2.5,0,1,1,2.5,2.5A2.48,2.48,0,0,1,1602,172.5Zm9.5,3.5a3.42,3.42,0,0,0-2.1.7l-2.1-2.1a3.42,3.42,0,0,0,.7-2.1,3.5,3.5,0,1,0-3.5,3.5,3.42,3.42,0,0,0,2.1-.7l2.1,2.1a3.42,3.42,0,0,0-.7,2.1,3.5,3.5,0,1,0,3.5-3.5Z"/>
      <g class="cls-25">
        <rect class="cls-2" x="473" y="-469" width="1440" height="1027"/>
      </g>
    </g>
    <g>
      <path class="cls-14" d="M1602,252.5a2.5,2.5,0,1,1,2.5,2.5A2.48,2.48,0,0,1,1602,252.5Zm9.5,3.5a3.42,3.42,0,0,0-2.1.7l-2.1-2.1a3.42,3.42,0,0,0,.7-2.1,3.5,3.5,0,1,0-3.5,3.5,3.42,3.42,0,0,0,2.1-.7l2.1,2.1a3.42,3.42,0,0,0-.7,2.1,3.5,3.5,0,1,0,3.5-3.5Z"/>
      <g class="cls-26">
        <rect class="cls-2" x="473" y="-389" width="1440" height="1027"/>
      </g>
    </g>
    <g>
      <path class="cls-14" d="M1602,332.5a2.5,2.5,0,1,1,2.5,2.5A2.48,2.48,0,0,1,1602,332.5Zm9.5,3.5a3.42,3.42,0,0,0-2.1.7l-2.1-2.1a3.42,3.42,0,0,0,.7-2.1,3.5,3.5,0,1,0-3.5,3.5,3.42,3.42,0,0,0,2.1-.7l2.1,2.1a3.42,3.42,0,0,0-.7,2.1,3.5,3.5,0,1,0,3.5-3.5Z"/>
      <g class="cls-27">
        <rect class="cls-2" x="473" y="-309" width="1440" height="1027"/>
      </g>
    </g>
    <g>
      <path class="cls-14" d="M1602,92.5a2.5,2.5,0,1,1,2.5,2.5A2.48,2.48,0,0,1,1602,92.5Zm9.5,3.5a3.42,3.42,0,0,0-2.1.7l-2.1-2.1a3.42,3.42,0,0,0,.7-2.1,3.5,3.5,0,1,0-3.5,3.5,3.42,3.42,0,0,0,2.1-.7l2.1,2.1a3.42,3.42,0,0,0-.7,2.1,3.5,3.5,0,1,0,3.5-3.5Z"/>
      <g class="cls-28">
        <rect class="cls-2" x="473" y="-549" width="1440" height="1027"/>
      </g>
    </g>
    <g>
      <path class="cls-14" d="M1602,12.5a2.5,2.5,0,1,1,2.5,2.5A2.48,2.48,0,0,1,1602,12.5Zm9.5,3.5a3.42,3.42,0,0,0-2.1.7l-2.1-2.1a3.42,3.42,0,0,0,.7-2.1,3.5,3.5,0,1,0-3.5,3.5,3.42,3.42,0,0,0,2.1-.7l2.1,2.1a3.42,3.42,0,0,0-.7,2.1,3.5,3.5,0,1,0,3.5-3.5Z"/>
      <g class="cls-29">
        <rect class="cls-2" x="473" y="-629" width="1440" height="1027"/>
      </g>
    </g>
  </g>
</svg>
