<svg xmlns="http://www.w3.org/2000/svg" xmlns:xlink="http://www.w3.org/1999/xlink" width="640" height="352" viewBox="0 0 640 352">
  <defs>
    <style nonce="{{ styleNonce }}">
      .cls-1, .cls-14, .cls-15, .cls-2, .cls-6 {
        fill: #3c6df0;
      }

      .cls-1, .cls-3 {
        clip-rule: evenodd;
      }

      .cls-16, .cls-19, .cls-20, .cls-3, .cls-4 {
        fill: #007d79;
      }

      .cls-5 {
        fill: #e7e9f7;
      }

      .cls-16, .cls-6 {
        fill-rule: evenodd;
      }

      .cls-7 {
        clip-path: url(#clip-path);
      }

      .cls-13, .cls-14, .cls-15, .cls-19, .cls-20, .cls-8 {
        font-size: 12px;
      }

      .cls-13, .cls-8 {
        fill: #1d364d;
      }

      .cls-15, .cls-20, .cls-8 {
        font-family: IBMPlexSans, IBM Plex Sans;
      }

      .cls-9 {
        fill: #fff;
      }

      .cls-10 {
        fill: #f2f4f8;
      }

      .cls-11 {
        clip-path: url(#clip-path-2);
      }

      .cls-12 {
        clip-path: url(#clip-path-3);
      }

      .cls-13, .cls-14, .cls-19 {
        font-family: IBMPlexSans-SemiBold, IBM Plex Sans;
        font-weight: 600;
      }

      .cls-17 {
        clip-path: url(#clip-path-4);
      }

      .cls-18 {
        clip-path: url(#clip-path-5);
      }

      .cls-21 {
        clip-path: url(#clip-path-6);
      }

      .cls-22 {
        clip-path: url(#clip-path-7);
      }

      .cls-23 {
        clip-path: url(#clip-path-8);
      }

      .cls-24 {
        clip-path: url(#clip-path-9);
      }

      .cls-25 {
        clip-path: url(#clip-path-10);
      }

      .cls-26 {
        clip-path: url(#clip-path-11);
      }

      .cls-27 {
        clip-path: url(#clip-path-12);
      }

      .cls-28 {
        clip-path: url(#clip-path-13);
      }

      .cls-29 {
        clip-path: url(#clip-path-14);
      }

      .cls-30 {
        clip-path: url(#clip-path-15);
      }

      .cls-31 {
        clip-path: url(#clip-path-16);
      }

      .cls-32 {
        clip-path: url(#clip-path-17);
      }

      .cls-33 {
        clip-path: url(#clip-path-18);
      }

      .cls-34 {
        clip-path: url(#clip-path-19);
      }
    </style>
    <clipPath id="clip-path">
      <path class="cls-1" d="M-198,172.5a2.48,2.48,0,0,1,2.5-2.5,2.48,2.48,0,0,1,2.5,2.5,2.48,2.48,0,0,1-2.5,2.5A2.48,2.48,0,0,1-198,172.5Zm9.5,3.5a3.42,3.42,0,0,0-2.1.7l-2.1-2.1a3.42,3.42,0,0,0,.7-2.1,3.48,3.48,0,0,0-3.5-3.5,3.48,3.48,0,0,0-3.5,3.5,3.48,3.48,0,0,0,3.5,3.5,3.42,3.42,0,0,0,2.1-.7l2.1,2.1a3.42,3.42,0,0,0-.7,2.1,3.48,3.48,0,0,0,3.5,3.5,3.48,3.48,0,0,0,3.5-3.5A3.48,3.48,0,0,0-188.5,176Z"/>
    </clipPath>
    <clipPath id="clip-path-2">
      <path class="cls-1" d="M117,136.5a2.5,2.5,0,1,1,2.5,2.5A2.48,2.48,0,0,1,117,136.5Zm9.5,3.5a3.42,3.42,0,0,0-2.1.7l-2.1-2.1a3.42,3.42,0,0,0,.7-2.1,3.5,3.5,0,1,0-3.5,3.5,3.42,3.42,0,0,0,2.1-.7l2.1,2.1a3.42,3.42,0,0,0-.7,2.1,3.5,3.5,0,1,0,3.5-3.5Z"/>
    </clipPath>
    <clipPath id="clip-path-3">
      <rect class="cls-2" x="-1012" y="-505" width="1440" height="1027"/>
    </clipPath>
    <clipPath id="clip-path-4">
      <path class="cls-3" d="M117,252.5a2.5,2.5,0,1,1,2.5,2.5A2.48,2.48,0,0,1,117,252.5Zm9.5,3.5a3.42,3.42,0,0,0-2.1.7l-2.1-2.1a3.42,3.42,0,0,0,.7-2.1,3.5,3.5,0,1,0-3.5,3.5,3.42,3.42,0,0,0,2.1-.7l2.1,2.1a3.42,3.42,0,0,0-.7,2.1,3.5,3.5,0,1,0,3.5-3.5Z"/>
    </clipPath>
    <clipPath id="clip-path-5">
      <rect class="cls-4" x="-1012" y="-389" width="1440" height="1027"/>
    </clipPath>
    <clipPath id="clip-path-6">
      <path class="cls-1" d="M401,136.5a2.5,2.5,0,1,1,2.5,2.5A2.48,2.48,0,0,1,401,136.5Zm9.5,3.5a3.42,3.42,0,0,0-2.1.7l-2.1-2.1a3.42,3.42,0,0,0,.7-2.1,3.5,3.5,0,1,0-3.5,3.5,3.42,3.42,0,0,0,2.1-.7l2.1,2.1a3.42,3.42,0,0,0-.7,2.1,3.5,3.5,0,1,0,3.5-3.5Z"/>
    </clipPath>
    <clipPath id="clip-path-7">
      <rect class="cls-2" x="-728" y="-505" width="1440" height="1027"/>
    </clipPath>
    <clipPath id="clip-path-8">
      <path class="cls-3" d="M541,222.5a2.5,2.5,0,1,1,2.5,2.5A2.48,2.48,0,0,1,541,222.5Zm9.5,3.5a3.42,3.42,0,0,0-2.1.7l-2.1-2.1a3.42,3.42,0,0,0,.7-2.1,3.5,3.5,0,1,0-3.5,3.5,3.42,3.42,0,0,0,2.1-.7l2.1,2.1a3.42,3.42,0,0,0-.7,2.1,3.5,3.5,0,1,0,3.5-3.5Z"/>
    </clipPath>
    <clipPath id="clip-path-9">
      <rect class="cls-4" x="-588" y="-419" width="1440" height="1027"/>
    </clipPath>
    <clipPath id="clip-path-10">
      <path class="cls-1" d="M958,172.5a2.5,2.5,0,1,1,2.5,2.5A2.48,2.48,0,0,1,958,172.5Zm9.5,3.5a3.42,3.42,0,0,0-2.1.7l-2.1-2.1a3.42,3.42,0,0,0,.7-2.1,3.5,3.5,0,1,0-3.5,3.5,3.42,3.42,0,0,0,2.1-.7l2.1,2.1a3.42,3.42,0,0,0-.7,2.1,3.5,3.5,0,1,0,3.5-3.5Z"/>
    </clipPath>
    <clipPath id="clip-path-11">
      <path class="cls-1" d="M960.5,222a2.5,2.5,0,1,1,2.5-2.5A2.48,2.48,0,0,1,960.5,222Zm3.5-9.5a3.42,3.42,0,0,0,.7,2.1l-2.1,2.1a3.42,3.42,0,0,0-2.1-.7,3.5,3.5,0,1,0,3.5,3.5,3.42,3.42,0,0,0-.7-2.1l2.1-2.1a3.42,3.42,0,0,0,2.1.7,3.5,3.5,0,1,0-3.5-3.5Z"/>
    </clipPath>
    <clipPath id="clip-path-12">
      <path class="cls-1" d="M958,252.5a2.5,2.5,0,1,1,2.5,2.5A2.48,2.48,0,0,1,958,252.5Zm9.5,3.5a3.42,3.42,0,0,0-2.1.7l-2.1-2.1a3.42,3.42,0,0,0,.7-2.1,3.5,3.5,0,1,0-3.5,3.5,3.42,3.42,0,0,0,2.1-.7l2.1,2.1a3.42,3.42,0,0,0-.7,2.1,3.5,3.5,0,1,0,3.5-3.5Z"/>
    </clipPath>
    <clipPath id="clip-path-13">
      <path class="cls-1" d="M960.5,302a2.5,2.5,0,1,1,2.5-2.5A2.48,2.48,0,0,1,960.5,302Zm3.5-9.5a3.42,3.42,0,0,0,.7,2.1l-2.1,2.1a3.42,3.42,0,0,0-2.1-.7,3.5,3.5,0,1,0,3.5,3.5,3.42,3.42,0,0,0-.7-2.1l2.1-2.1a3.42,3.42,0,0,0,2.1.7,3.5,3.5,0,1,0-3.5-3.5Z"/>
    </clipPath>
    <clipPath id="clip-path-14">
      <path class="cls-1" d="M958,332.5a2.5,2.5,0,1,1,2.5,2.5A2.48,2.48,0,0,1,958,332.5Zm9.5,3.5a3.42,3.42,0,0,0-2.1.7l-2.1-2.1a3.42,3.42,0,0,0,.7-2.1,3.5,3.5,0,1,0-3.5,3.5,3.42,3.42,0,0,0,2.1-.7l2.1,2.1a3.42,3.42,0,0,0-.7,2.1,3.5,3.5,0,1,0,3.5-3.5Z"/>
    </clipPath>
    <clipPath id="clip-path-15">
      <path class="cls-1" d="M967.5,130a2.5,2.5,0,1,1-2.5,2.5A2.48,2.48,0,0,1,967.5,130Zm-3.5,9.5a3.42,3.42,0,0,0-.7-2.1l2.1-2.1a3.42,3.42,0,0,0,2.1.7,3.5,3.5,0,1,0-3.5-3.5,3.42,3.42,0,0,0,.7,2.1l-2.1,2.1a3.42,3.42,0,0,0-2.1-.7,3.5,3.5,0,1,0,3.5,3.5Z"/>
    </clipPath>
    <clipPath id="clip-path-16">
      <path class="cls-1" d="M958,92.5a2.5,2.5,0,1,1,2.5,2.5A2.48,2.48,0,0,1,958,92.5Zm9.5,3.5a3.42,3.42,0,0,0-2.1.7l-2.1-2.1a3.42,3.42,0,0,0,.7-2.1,3.5,3.5,0,1,0-3.5,3.5,3.42,3.42,0,0,0,2.1-.7l2.1,2.1a3.42,3.42,0,0,0-.7,2.1,3.5,3.5,0,1,0,3.5-3.5Z"/>
    </clipPath>
    <clipPath id="clip-path-17">
      <path class="cls-1" d="M967.5,50a2.5,2.5,0,1,1-2.5,2.5A2.48,2.48,0,0,1,967.5,50ZM964,59.5a3.42,3.42,0,0,0-.7-2.1l2.1-2.1a3.42,3.42,0,0,0,2.1.7,3.5,3.5,0,1,0-3.5-3.5,3.42,3.42,0,0,0,.7,2.1l-2.1,2.1a3.42,3.42,0,0,0-2.1-.7,3.5,3.5,0,1,0,3.5,3.5Z"/>
    </clipPath>
    <clipPath id="clip-path-18">
      <path class="cls-1" d="M958,12.5a2.5,2.5,0,1,1,2.5,2.5A2.48,2.48,0,0,1,958,12.5Zm9.5,3.5a3.42,3.42,0,0,0-2.1.7l-2.1-2.1a3.42,3.42,0,0,0,.7-2.1,3.5,3.5,0,1,0-3.5,3.5,3.42,3.42,0,0,0,2.1-.7l2.1,2.1a3.42,3.42,0,0,0-.7,2.1,3.5,3.5,0,1,0,3.5-3.5Z"/>
    </clipPath>
    <clipPath id="clip-path-19">
      <path class="cls-1" d="M1376.24,210.93a2.5,2.5,0,1,1,2.5,2.5A2.48,2.48,0,0,1,1376.24,210.93Zm9.5,3.5a3.42,3.42,0,0,0-2.1.7l-2.1-2.1a3.42,3.42,0,0,0,.7-2.1,3.5,3.5,0,1,0-3.5,3.5,3.42,3.42,0,0,0,2.1-.7l2.1,2.1a3.42,3.42,0,0,0-.7,2.1,3.5,3.5,0,1,0,3.5-3.5Z"/>
    </clipPath>
  </defs>
  <title>Kafka_Connect_Basics</title>
  <g id="Layer_3" data-name="Layer 3">
    <rect class="cls-5" width="640" height="352"/>
  </g>
  <g id="Layer_1" data-name="Layer 1">
    <g>
      <path class="cls-6" d="M-198,172.5a2.48,2.48,0,0,1,2.5-2.5,2.48,2.48,0,0,1,2.5,2.5,2.48,2.48,0,0,1-2.5,2.5A2.48,2.48,0,0,1-198,172.5Zm9.5,3.5a3.42,3.42,0,0,0-2.1.7l-2.1-2.1a3.42,3.42,0,0,0,.7-2.1,3.48,3.48,0,0,0-3.5-3.5,3.48,3.48,0,0,0-3.5,3.5,3.48,3.48,0,0,0,3.5,3.5,3.42,3.42,0,0,0,2.1-.7l2.1,2.1a3.42,3.42,0,0,0-.7,2.1,3.48,3.48,0,0,0,3.5,3.5,3.48,3.48,0,0,0,3.5-3.5A3.48,3.48,0,0,0-188.5,176Z"/>
      <g class="cls-7">
        <rect class="cls-2" x="-1327" y="-469" width="1440" height="1027"/>
      </g>
    </g>
    <text class="cls-8" transform="translate(389.19 50.31)">Distributed mode</text>
    <text class="cls-8" transform="translate(34.63 50.31)">Standalone mode</text>
    <g>
      <g>
        <g>
          <rect class="cls-9" x="16.5" y="84.5" width="131" height="107"/>
          <path class="cls-10" d="M147,85V191H17V85H147m1-1H16V192H148V84Z"/>
        </g>
        <g>
          <rect class="cls-9" x="29" y="129" width="106" height="22"/>
          <path class="cls-2" d="M134,130v20H30V130H134m2-2H28v24H136V128Z"/>
        </g>
        <g>
          <rect class="cls-9" x="28.5" y="156.5" width="107" height="23"/>
          <path class="cls-2" d="M135,157v22H29V157H135m1-1H28v24H136V156Z"/>
        </g>
        <g>
          <path class="cls-6" d="M117,136.5a2.5,2.5,0,1,1,2.5,2.5A2.48,2.48,0,0,1,117,136.5Zm9.5,3.5a3.42,3.42,0,0,0-2.1.7l-2.1-2.1a3.42,3.42,0,0,0,.7-2.1,3.5,3.5,0,1,0-3.5,3.5,3.42,3.42,0,0,0,2.1-.7l2.1,2.1a3.42,3.42,0,0,0-.7,2.1,3.5,3.5,0,1,0,3.5-3.5Z"/>
          <g class="cls-11">
            <g>
              <rect class="cls-2" x="-1012" y="-505" width="1440" height="1027"/>
              <g class="cls-12">
                <rect class="cls-2" x="111" y="128" width="24" height="24"/>
              </g>
            </g>
          </g>
        </g>
        <text class="cls-13" transform="translate(27.9 108.31)">Connect worker</text>
        <text class="cls-14" transform="translate(36 144.31)">Connector X</text>
        <text class="cls-15" transform="translate(36 172.31)">Task X</text>
      </g>
      <g>
        <g>
          <rect class="cls-9" x="16.5" y="200.5" width="131" height="107"/>
          <path class="cls-10" d="M147,201V307H17V201H147m1-1H16V308H148V200Z"/>
        </g>
        <g>
          <rect class="cls-9" x="29" y="245" width="106" height="22"/>
          <path class="cls-4" d="M134,246v20H30V246H134m2-2H28v24H136V244Z"/>
        </g>
        <g>
          <rect class="cls-9" x="28.5" y="272.5" width="107" height="23"/>
          <path class="cls-4" d="M135,273v22H29V273H135m1-1H28v24H136V272Z"/>
        </g>
        <g>
          <path class="cls-16" d="M117,252.5a2.5,2.5,0,1,1,2.5,2.5A2.48,2.48,0,0,1,117,252.5Zm9.5,3.5a3.42,3.42,0,0,0-2.1.7l-2.1-2.1a3.42,3.42,0,0,0,.7-2.1,3.5,3.5,0,1,0-3.5,3.5,3.42,3.42,0,0,0,2.1-.7l2.1,2.1a3.42,3.42,0,0,0-.7,2.1,3.5,3.5,0,1,0,3.5-3.5Z"/>
          <g class="cls-17">
            <g>
              <rect class="cls-4" x="-1012" y="-389" width="1440" height="1027"/>
              <g class="cls-18">
                <rect class="cls-4" x="111" y="244" width="24" height="24"/>
              </g>
            </g>
          </g>
        </g>
        <text class="cls-13" transform="translate(27.9 224.31)">Connect worker</text>
        <text class="cls-19" transform="translate(36 260.31)">Connector Y</text>
        <text class="cls-20" transform="translate(36 288.31)">Task Y</text>
      </g>
    </g>
    <g>
      <g>
        <g>
          <rect class="cls-9" x="300.5" y="84.5" width="131" height="107"/>
          <path class="cls-10" d="M431,85V191H301V85H431m1-1H300V192H432V84Z"/>
        </g>
        <g>
          <rect class="cls-9" x="313" y="129" width="106" height="22"/>
          <path class="cls-2" d="M418,130v20H314V130H418m2-2H312v24H420V128Z"/>
        </g>
        <g>
          <rect class="cls-9" x="312.5" y="156.5" width="107" height="23"/>
          <path class="cls-4" d="M419,157v22H313V157H419m1-1H312v24H420V156Z"/>
        </g>
        <g>
          <path class="cls-6" d="M401,136.5a2.5,2.5,0,1,1,2.5,2.5A2.48,2.48,0,0,1,401,136.5Zm9.5,3.5a3.42,3.42,0,0,0-2.1.7l-2.1-2.1a3.42,3.42,0,0,0,.7-2.1,3.5,3.5,0,1,0-3.5,3.5,3.42,3.42,0,0,0,2.1-.7l2.1,2.1a3.42,3.42,0,0,0-.7,2.1,3.5,3.5,0,1,0,3.5-3.5Z"/>
          <g class="cls-21">
            <g>
              <rect class="cls-2" x="-728" y="-505" width="1440" height="1027"/>
              <g class="cls-22">
                <rect class="cls-2" x="395" y="128" width="24" height="24"/>
              </g>
            </g>
          </g>
        </g>
        <text class="cls-13" transform="translate(311.9 108.31)">Connect worker</text>
        <text class="cls-14" transform="translate(320 144.31)">Connector X</text>
        <text class="cls-20" transform="translate(320 172.31)">Task Y</text>
      </g>
      <g>
        <g>
          <rect class="cls-9" x="300.5" y="200.5" width="131" height="107"/>
          <path class="cls-10" d="M431,201V307H301V201H431m1-1H300V308H432V200Z"/>
        </g>
        <g>
          <rect class="cls-9" x="312.5" y="244.5" width="107" height="23"/>
          <path class="cls-2" d="M419,245v22H313V245H419m1-1H312v24H420V244Z"/>
        </g>
        <g>
          <rect class="cls-9" x="312.5" y="272.5" width="107" height="23"/>
          <path class="cls-4" d="M419,273v22H313V273H419m1-1H312v24H420V272Z"/>
        </g>
        <text class="cls-13" transform="translate(311.9 224.31)">Connect worker</text>
        <text class="cls-14" transform="translate(320 260.31)">Task X</text>
        <text class="cls-20" transform="translate(320 288.31)">Task Y</text>
      </g>
    </g>
    <g>
      <g>
        <rect class="cls-9" x="440.5" y="142.5" width="131" height="107"/>
        <path class="cls-10" d="M571,143V249H441V143H571m1-1H440V250H572V142Z"/>
      </g>
      <g>
        <rect class="cls-9" x="452.5" y="186.5" width="107" height="23"/>
        <path class="cls-2" d="M559,187v22H453V187H559m1-1H452v24H560V186Z"/>
      </g>
      <g>
        <rect class="cls-9" x="453" y="215" width="106" height="22"/>
        <path class="cls-4" d="M558,216v20H454V216H558m2-2H452v24H560V214Z"/>
      </g>
      <g>
        <path class="cls-16" d="M541,222.5a2.5,2.5,0,1,1,2.5,2.5A2.48,2.48,0,0,1,541,222.5Zm9.5,3.5a3.42,3.42,0,0,0-2.1.7l-2.1-2.1a3.42,3.42,0,0,0,.7-2.1,3.5,3.5,0,1,0-3.5,3.5,3.42,3.42,0,0,0,2.1-.7l2.1,2.1a3.42,3.42,0,0,0-.7,2.1,3.5,3.5,0,1,0,3.5-3.5Z"/>
        <g class="cls-23">
          <g>
            <rect class="cls-4" x="-588" y="-419" width="1440" height="1027"/>
            <g class="cls-24">
              <rect class="cls-4" x="535" y="214" width="24" height="24"/>
            </g>
          </g>
        </g>
      </g>
      <text class="cls-13" transform="translate(451.9 166.31)">Connect worker</text>
      <text class="cls-15" transform="translate(460 202.31)">Task X</text>
      <text class="cls-19" transform="translate(460 230.31)">Connector Y</text>
    </g>
    <g>
      <path class="cls-6" d="M958,172.5a2.5,2.5,0,1,1,2.5,2.5A2.48,2.48,0,0,1,958,172.5Zm9.5,3.5a3.42,3.42,0,0,0-2.1.7l-2.1-2.1a3.42,3.42,0,0,0,.7-2.1,3.5,3.5,0,1,0-3.5,3.5,3.42,3.42,0,0,0,2.1-.7l2.1,2.1a3.42,3.42,0,0,0-.7,2.1,3.5,3.5,0,1,0,3.5-3.5Z"/>
      <g class="cls-25">
        <rect class="cls-2" x="-171" y="-469" width="1440" height="1027"/>
      </g>
    </g>
    <g>
      <path class="cls-6" d="M960.5,222a2.5,2.5,0,1,1,2.5-2.5A2.48,2.48,0,0,1,960.5,222Zm3.5-9.5a3.42,3.42,0,0,0,.7,2.1l-2.1,2.1a3.42,3.42,0,0,0-2.1-.7,3.5,3.5,0,1,0,3.5,3.5,3.42,3.42,0,0,0-.7-2.1l2.1-2.1a3.42,3.42,0,0,0,2.1.7,3.5,3.5,0,1,0-3.5-3.5Z"/>
      <g class="cls-26">
        <rect class="cls-2" x="319" y="-89" width="1027" height="1440"/>
      </g>
    </g>
    <g>
      <path class="cls-6" d="M958,252.5a2.5,2.5,0,1,1,2.5,2.5A2.48,2.48,0,0,1,958,252.5Zm9.5,3.5a3.42,3.42,0,0,0-2.1.7l-2.1-2.1a3.42,3.42,0,0,0,.7-2.1,3.5,3.5,0,1,0-3.5,3.5,3.42,3.42,0,0,0,2.1-.7l2.1,2.1a3.42,3.42,0,0,0-.7,2.1,3.5,3.5,0,1,0,3.5-3.5Z"/>
      <g class="cls-27">
        <rect class="cls-2" x="-171" y="-389" width="1440" height="1027"/>
      </g>
    </g>
    <g>
      <path class="cls-6" d="M960.5,302a2.5,2.5,0,1,1,2.5-2.5A2.48,2.48,0,0,1,960.5,302Zm3.5-9.5a3.42,3.42,0,0,0,.7,2.1l-2.1,2.1a3.42,3.42,0,0,0-2.1-.7,3.5,3.5,0,1,0,3.5,3.5,3.42,3.42,0,0,0-.7-2.1l2.1-2.1a3.42,3.42,0,0,0,2.1.7,3.5,3.5,0,1,0-3.5-3.5Z"/>
      <g class="cls-28">
        <rect class="cls-2" x="319" y="-9" width="1027" height="1440"/>
      </g>
    </g>
    <g>
      <path class="cls-6" d="M958,332.5a2.5,2.5,0,1,1,2.5,2.5A2.48,2.48,0,0,1,958,332.5Zm9.5,3.5a3.42,3.42,0,0,0-2.1.7l-2.1-2.1a3.42,3.42,0,0,0,.7-2.1,3.5,3.5,0,1,0-3.5,3.5,3.42,3.42,0,0,0,2.1-.7l2.1,2.1a3.42,3.42,0,0,0-.7,2.1,3.5,3.5,0,1,0,3.5-3.5Z"/>
      <g class="cls-29">
        <rect class="cls-2" x="-171" y="-309" width="1440" height="1027"/>
      </g>
    </g>
    <g>
      <path class="cls-6" d="M967.5,130a2.5,2.5,0,1,1-2.5,2.5A2.48,2.48,0,0,1,967.5,130Zm-3.5,9.5a3.42,3.42,0,0,0-.7-2.1l2.1-2.1a3.42,3.42,0,0,0,2.1.7,3.5,3.5,0,1,0-3.5-3.5,3.42,3.42,0,0,0,.7,2.1l-2.1,2.1a3.42,3.42,0,0,0-2.1-.7,3.5,3.5,0,1,0,3.5,3.5Z"/>
      <g class="cls-30">
        <rect class="cls-2" x="582" y="-999" width="1027" height="1440"/>
      </g>
    </g>
    <g>
      <path class="cls-6" d="M958,92.5a2.5,2.5,0,1,1,2.5,2.5A2.48,2.48,0,0,1,958,92.5Zm9.5,3.5a3.42,3.42,0,0,0-2.1.7l-2.1-2.1a3.42,3.42,0,0,0,.7-2.1,3.5,3.5,0,1,0-3.5,3.5,3.42,3.42,0,0,0,2.1-.7l2.1,2.1a3.42,3.42,0,0,0-.7,2.1,3.5,3.5,0,1,0,3.5-3.5Z"/>
      <g class="cls-31">
        <rect class="cls-2" x="-171" y="-549" width="1440" height="1027"/>
      </g>
    </g>
    <g>
      <path class="cls-6" d="M967.5,50a2.5,2.5,0,1,1-2.5,2.5A2.48,2.48,0,0,1,967.5,50ZM964,59.5a3.42,3.42,0,0,0-.7-2.1l2.1-2.1a3.42,3.42,0,0,0,2.1.7,3.5,3.5,0,1,0-3.5-3.5,3.42,3.42,0,0,0,.7,2.1l-2.1,2.1a3.42,3.42,0,0,0-2.1-.7,3.5,3.5,0,1,0,3.5,3.5Z"/>
      <g class="cls-32">
        <rect class="cls-2" x="582" y="-1079" width="1027" height="1440"/>
      </g>
    </g>
    <g>
      <path class="cls-6" d="M958,12.5a2.5,2.5,0,1,1,2.5,2.5A2.48,2.48,0,0,1,958,12.5Zm9.5,3.5a3.42,3.42,0,0,0-2.1.7l-2.1-2.1a3.42,3.42,0,0,0,.7-2.1,3.5,3.5,0,1,0-3.5,3.5,3.42,3.42,0,0,0,2.1-.7l2.1,2.1a3.42,3.42,0,0,0-.7,2.1,3.5,3.5,0,1,0,3.5-3.5Z"/>
      <g class="cls-33">
        <rect class="cls-2" x="-171" y="-629" width="1440" height="1027"/>
      </g>
    </g>
    <g>
      <path class="cls-6" d="M1376.24,210.93a2.5,2.5,0,1,1,2.5,2.5A2.48,2.48,0,0,1,1376.24,210.93Zm9.5,3.5a3.42,3.42,0,0,0-2.1.7l-2.1-2.1a3.42,3.42,0,0,0,.7-2.1,3.5,3.5,0,1,0-3.5,3.5,3.42,3.42,0,0,0,2.1-.7l2.1,2.1a3.42,3.42,0,0,0-.7,2.1,3.5,3.5,0,1,0,3.5-3.5Z"/>
      <g class="cls-34">
        <rect class="cls-2" x="247.24" y="-430.57" width="1440" height="1027"/>
      </g>
    </g>
  </g>
</svg>
