<svg xmlns="http://www.w3.org/2000/svg" viewBox="0 0 640 424"><defs><style>.cls-1{fill:#e7e9f7;}.cls-2{fill:#fff;}.cls-3{fill:#f2f4f8;}.cls-11,.cls-4{font-size:12px;fill:#1d364d;}.cls-4{font-family:IBMPlexSans-SemiBold, IBM Plex Sans;font-weight:600;}.cls-10,.cls-12,.cls-5,.cls-7,.cls-8,.cls-9{fill:none;stroke-miterlimit:10;}.cls-12,.cls-5{stroke:#3c6df0;stroke-width:2px;}.cls-6{fill:#3c6df0;}.cls-10,.cls-7,.cls-8,.cls-9{stroke:#b0bef3;}.cls-8{stroke-dasharray:3.98 3.98;}.cls-9{stroke-dasharray:4 4;}.cls-10{stroke-dasharray:4.12 4.12;}.cls-11{font-family:IBMPlexSans, IBM Plex Sans;}.cls-12{stroke-linecap:square;}</style></defs><title>Docs_Performance</title><g id="backgrounds"><rect class="cls-1" width="640" height="424.01"/></g><g id="Layer_1" data-name="Layer 1"><polygon class="cls-2" points="12.5 327.46 12.5 272.51 159.5 272.51 159.5 327.5 12.5 327.46"/><path class="cls-3" d="M159,273v54L13,327V273H159m1-1H12V328l148,0V272Z"/><text class="cls-4" transform="translate(561.32 276) scale(0.99 1)">Kafka Cluster</text><rect class="cls-2" x="12.5" y="376.5" width="39" height="39"/><path class="cls-3" d="M51,377v38H13V377H51m1-1H12v40H52V376Z"/><line class="cls-5" x1="32" y1="332" x2="32" y2="400"/><rect class="cls-6" x="24" y="388" width="16" height="16"/><rect class="cls-2" x="66.5" y="376.5" width="39" height="39"/><path class="cls-3" d="M105,377v38H67V377h38m1-1H66v40h40V376Z"/><line class="cls-5" x1="86" y1="332" x2="86" y2="400"/><rect class="cls-6" x="78" y="388" width="16" height="16"/><rect class="cls-2" x="120.5" y="376.5" width="39" height="39"/><path class="cls-3" d="M159,377v38H121V377h38m1-1H120v40h40V376Z"/><line class="cls-5" x1="140" y1="332" x2="140" y2="400"/><rect class="cls-6" x="132" y="388" width="16" height="16"/><line class="cls-5" x1="398" y1="23.91" x2="398" y2="36.31"/><polygon class="cls-6" points="398.01 40 403.01 32 393.01 32 398.01 40"/><polygon class="cls-6" points="554.01 40 559.01 32 549.01 32 554.01 40"/><polygon class="cls-6" points="242.01 40 247.01 32 237.01 32 242.01 40"/><line class="cls-7" x1="94.11" y1="255.5" x2="96.11" y2="255.5"/><polyline class="cls-8" points="100.09 255.5 291.27 255.5 632.01 255.5"/><polyline class="cls-7" points="634 255.5 636 255.5 636 253.5"/><line class="cls-9" x1="636" y1="249.5" x2="636" y2="11.5"/><polyline class="cls-7" points="636 9.5 636 7.5 634 7.5"/><line class="cls-9" x1="630" y1="7.5" x2="8" y2="7.5"/><polyline class="cls-7" points="6 7.5 4 7.5 4 9.5"/><line class="cls-9" x1="4" y1="13.5" x2="4" y2="251.5"/><polyline class="cls-7" points="4 253.5 4 255.5 6 255.5"/><line class="cls-10" x1="10.12" y1="255.5" x2="74.04" y2="255.5"/><line class="cls-7" x1="76.1" y1="255.5" x2="78.1" y2="255.5"/><polygon class="cls-2" points="168.5 239.37 168.5 40.5 315.5 40.5 315.5 239.5 168.5 239.37"/><path class="cls-3" d="M315,41V239l-146-.13V41H315m1-1H168V239.87L316,240V40Z"/><rect class="cls-3" x="184.5" y="104.5" width="115" height="43"/><path class="cls-3" d="M299,105v42H185V105H299m1-1H184v44H300V104Z"/><rect class="cls-3" x="184.5" y="152.5" width="115" height="43"/><path class="cls-3" d="M299,153v42H185V153H299m1-1H184v44H300V152Z"/><rect class="cls-3" x="184.5" y="56.5" width="115" height="43"/><path class="cls-3" d="M299,57V99H185V57H299m1-1H184v44H300V56Z"/><text class="cls-11" transform="translate(184 224)">Worker node</text><polygon class="cls-2" points="324.5 239.37 324.5 40.5 471.5 40.5 471.5 239.5 324.5 239.37"/><path class="cls-3" d="M471,41V239l-146-.13V41H471m1-1H324V239.87L472,240V40Z"/><rect class="cls-3" x="340.5" y="104.5" width="115" height="43"/><path class="cls-3" d="M455,105v42H341V105H455m1-1H340v44H456V104Z"/><rect class="cls-3" x="340.5" y="152.5" width="115" height="43"/><path class="cls-3" d="M455,153v42H341V153H455m1-1H340v44H456V152Z"/><rect class="cls-3" x="340.5" y="56.5" width="115" height="43"/><path class="cls-3" d="M455,57V99H341V57H455m1-1H340v44H456V56Z"/><text class="cls-11" transform="translate(340 224)">Worker node</text><polygon class="cls-2" points="480.5 239.37 480.5 40.5 627.5 40.5 627.5 239.5 480.5 239.37"/><path class="cls-3" d="M627,41V239l-146-.13V41H627m1-1H480V239.87L628,240V40Z"/><rect class="cls-3" x="496.5" y="104.5" width="115" height="43"/><path class="cls-3" d="M611,105v42H497V105H611m1-1H496v44H612V104Z"/><rect class="cls-3" x="496.5" y="152.5" width="115" height="43"/><path class="cls-3" d="M611,153v42H497V153H611m1-1H496v44H612V152Z"/><rect class="cls-3" x="496.5" y="56.5" width="115" height="43"/><path class="cls-3" d="M611,57V99H497V57H611m1-1H496v44H612V56Z"/><text class="cls-11" transform="translate(496 224)">Worker node</text><polyline class="cls-12" points="554 24 86 24 86 271"/><text class="cls-4" transform="translate(183.03 396)">Producers</text><polygon class="cls-6" points="140 328 145 336 135 336 140 328"/><line class="cls-12" x1="242" y1="24" x2="242" y2="35"/><polygon class="cls-6" points="86 328 91 336 81 336 86 328"/><polygon class="cls-6" points="32 328 37 336 27 336 32 328"/><line class="cls-5" x1="554" y1="23.91" x2="554" y2="36.31"/><text class="cls-4" transform="translate(183.03 300)">Load balancer</text></g></svg>