<svg xmlns="http://www.w3.org/2000/svg" viewBox="0 0 640 336"><defs><style>.cls-1{fill:#e7e9f7;}.cls-2{fill:#fff;}.cls-3{fill:#f2f4f8;}.cls-13,.cls-4{font-size:12px;fill:#1d364d;}.cls-4{font-family:IBMPlexSans-SemiBold, IBM Plex Sans;font-weight:600;}.cls-10,.cls-11,.cls-12,.cls-14,.cls-5,.cls-7,.cls-8,.cls-9{fill:none;stroke-miterlimit:10;}.cls-14,.cls-5{stroke:#3c6df0;stroke-width:2px;}.cls-6{fill:#3c6df0;}.cls-10,.cls-11,.cls-12,.cls-7,.cls-8,.cls-9{stroke:#b0bef3;}.cls-8{stroke-dasharray:3.71 3.71;}.cls-9{stroke-dasharray:3.57 3.57;}.cls-10{stroke-dasharray:4 4;}.cls-11{stroke-dasharray:4 4;}.cls-12{stroke-dasharray:3.17 3.17;}.cls-13{font-family:IBMPlexSans, IBM Plex Sans;}.cls-14{stroke-linecap:square;}</style></defs><title>Docs_Performance</title><g id="backgrounds"><rect class="cls-1" width="640" height="336"/></g><g id="Layer_1" data-name="Layer 1"><polygon class="cls-2" points="12.5 239.37 12.5 40.5 159.5 40.5 159.5 239.5 12.5 239.37"/><path class="cls-3" d="M159,41V239l-146-.13V41H159m1-1H12V239.87L160,240V40Z"/><text class="cls-4" transform="translate(561.32 276) scale(0.99 1)">Kafka Cluster</text><rect class="cls-2" x="12.5" y="288.5" width="39" height="39"/><path class="cls-3" d="M51,289v38H13V289H51m1-1H12v40H52V288Z"/><line class="cls-5" x1="32" y1="244" x2="32" y2="312"/><rect class="cls-6" x="24" y="300" width="16" height="16"/><rect class="cls-2" x="66.5" y="288.5" width="39" height="39"/><path class="cls-3" d="M105,289v38H67V289h38m1-1H66v40h40V288Z"/><line class="cls-5" x1="86" y1="244" x2="86" y2="312"/><rect class="cls-6" x="78" y="300" width="16" height="16"/><rect class="cls-2" x="120.5" y="288.5" width="39" height="39"/><path class="cls-3" d="M159,289v38H121V289h38m1-1H120v40h40V288Z"/><line class="cls-5" x1="140" y1="244" x2="140" y2="312"/><rect class="cls-6" x="132" y="300" width="16" height="16"/><line class="cls-5" x1="398" y1="23.91" x2="398" y2="36.31"/><polygon class="cls-6" points="398.01 40 403.01 32 393.01 32 398.01 40"/><polygon class="cls-6" points="554.01 40 559.01 32 549.01 32 554.01 40"/><polygon class="cls-6" points="242.01 40 247.01 32 237.01 32 242.01 40"/><line class="cls-7" x1="95.57" y1="255.5" x2="97.57" y2="255.5"/><line class="cls-8" x1="101.28" y1="255.5" x2="129.07" y2="255.5"/><line class="cls-7" x1="130.92" y1="255.5" x2="132.92" y2="255.5"/><line class="cls-7" x1="39.72" y1="255.5" x2="41.72" y2="255.5"/><line class="cls-9" x1="45.29" y1="255.5" x2="72.06" y2="255.5"/><line class="cls-7" x1="73.85" y1="255.5" x2="75.85" y2="255.5"/><line class="cls-7" x1="148.17" y1="255.5" x2="150.17" y2="255.5"/><polyline class="cls-10" points="154.17 255.5 291.27 255.5 632 255.5"/><polyline class="cls-7" points="634 255.5 636 255.5 636 253.5"/><line class="cls-11" x1="636" y1="249.5" x2="636" y2="11.5"/><polyline class="cls-7" points="636 9.5 636 7.5 634 7.5"/><line class="cls-11" x1="630" y1="7.5" x2="8" y2="7.5"/><polyline class="cls-7" points="6 7.5 4 7.5 4 9.5"/><line class="cls-11" x1="4" y1="13.5" x2="4" y2="251.5"/><polyline class="cls-7" points="4 253.5 4 255.5 6 255.5"/><line class="cls-12" x1="9.17" y1="255.5" x2="20.28" y2="255.5"/><line class="cls-7" x1="21.86" y1="255.5" x2="23.86" y2="255.5"/><polygon class="cls-2" points="168.5 239.37 168.5 40.5 315.5 40.5 315.5 239.5 168.5 239.37"/><path class="cls-3" d="M315,41V239l-146-.13V41H315m1-1H168V239.87L316,240V40Z"/><rect class="cls-3" x="184.5" y="104.5" width="115" height="43"/><path class="cls-3" d="M299,105v42H185V105H299m1-1H184v44H300V104Z"/><rect class="cls-3" x="184.5" y="152.5" width="115" height="43"/><path class="cls-3" d="M299,153v42H185V153H299m1-1H184v44H300V152Z"/><rect class="cls-3" x="184.5" y="56.5" width="115" height="43"/><path class="cls-3" d="M299,57V99H185V57H299m1-1H184v44H300V56Z"/><text class="cls-13" transform="translate(184 224)">Worker node</text><polygon class="cls-2" points="324.5 239.37 324.5 40.5 471.5 40.5 471.5 239.5 324.5 239.37"/><path class="cls-3" d="M471,41V239l-146-.13V41H471m1-1H324V239.87L472,240V40Z"/><rect class="cls-3" x="340.5" y="104.5" width="115" height="43"/><path class="cls-3" d="M455,105v42H341V105H455m1-1H340v44H456V104Z"/><rect class="cls-3" x="340.5" y="152.5" width="115" height="43"/><path class="cls-3" d="M455,153v42H341V153H455m1-1H340v44H456V152Z"/><rect class="cls-3" x="340.5" y="56.5" width="115" height="43"/><path class="cls-3" d="M455,57V99H341V57H455m1-1H340v44H456V56Z"/><text class="cls-13" transform="translate(340 224)">Worker node</text><polygon class="cls-2" points="480.5 239.37 480.5 40.5 627.5 40.5 627.5 239.5 480.5 239.37"/><path class="cls-3" d="M627,41V239l-146-.13V41H627m1-1H480V239.87L628,240V40Z"/><rect class="cls-3" x="496.5" y="104.5" width="115" height="43"/><path class="cls-3" d="M611,105v42H497V105H611m1-1H496v44H612V104Z"/><rect class="cls-3" x="496.5" y="152.5" width="115" height="43"/><path class="cls-3" d="M611,153v42H497V153H611m1-1H496v44H612V152Z"/><rect class="cls-3" x="496.5" y="56.5" width="115" height="43"/><path class="cls-3" d="M611,57V99H497V57H611m1-1H496v44H612V56Z"/><text class="cls-13" transform="translate(496 224)">Worker node</text><polyline class="cls-14" points="554 24 86 24 86 39"/><text class="cls-4" transform="translate(183.03 308)">Producers</text><text class="cls-13" transform="translate(28 224)">Master node</text><polygon class="cls-6" points="140 240 145 248 135 248 140 240"/><line class="cls-14" x1="242" y1="24" x2="242" y2="35"/><polygon class="cls-6" points="86 240 91 248 81 248 86 240"/><polygon class="cls-6" points="32 240 37 248 27 248 32 240"/><line class="cls-5" x1="554" y1="23.91" x2="554" y2="36.31"/></g></svg>