<svg xmlns="http://www.w3.org/2000/svg" viewBox="0 0 640 336"><defs><style>.cls-1{fill:#e7e9f7;}.cls-2{fill:#fff;}.cls-3{fill:#f2f4f8;}.cls-14,.cls-4{font-size:10.8px;fill:#1d364d;}.cls-4{font-family:IBMPlexSans-SemiBold, IBM Plex Sans;font-weight:600;}.cls-10,.cls-11,.cls-12,.cls-13,.cls-15,.cls-5,.cls-7,.cls-8,.cls-9{fill:none;stroke-miterlimit:10;}.cls-15,.cls-5{stroke:#3c6df0;stroke-width:2px;}.cls-6{fill:#3c6df0;}.cls-10,.cls-11,.cls-12,.cls-13,.cls-7,.cls-8,.cls-9{stroke:#b0bef3;}.cls-8{stroke-dasharray:4.23 4.23;}.cls-9{stroke-dasharray:4.07 4.07;}.cls-10{stroke-dasharray:3.99 3.99;}.cls-11{stroke-dasharray:3.99 3.99;}.cls-12{stroke-dasharray:4.01 4.01;}.cls-13{stroke-dasharray:4.63 4.63;}.cls-14{font-family:IBMPlexSans, IBM Plex Sans;}.cls-15{stroke-linecap:square;}</style></defs><title>Docs_Performance</title><g id="backgrounds"><rect class="cls-1" width="640" height="336"/></g><g id="Layer_1" data-name="Layer 1"><polygon class="cls-2" points="43.3 232.16 43.3 53.27 175.5 53.27 175.5 232.27 43.3 232.16"/><path class="cls-3" d="M175,53.78v178l-131.2-.11V53.78H175m1-1H42.8V232.66l133.2.12v-180Z"/><text class="cls-4" transform="translate(537.19 265.17) scale(0.99 1)">Kafka Cluster</text><rect class="cls-2" x="43.3" y="276.48" width="35" height="35"/><path class="cls-3" d="M77.8,277v34h-34V277h34m1-1h-36v36h36V276Z"/><line class="cls-5" x1="60.8" y1="236.38" x2="60.8" y2="297.57"/><rect class="cls-6" x="53.6" y="286.77" width="14.4" height="14.4"/><rect class="cls-2" x="91.9" y="276.48" width="35" height="35"/><path class="cls-3" d="M126.4,277v34h-34V277h34m1-1h-36v36h36V276Z"/><line class="cls-5" x1="109.4" y1="236.38" x2="109.4" y2="297.57"/><rect class="cls-6" x="102.2" y="286.77" width="14.4" height="14.4"/><rect class="cls-2" x="140.5" y="276.48" width="35" height="35"/><path class="cls-3" d="M175,277v34H141V277h34m1-1H140v36h36V276Z"/><line class="cls-5" x1="158" y1="236.38" x2="158" y2="297.57"/><rect class="cls-6" x="150.8" y="286.77" width="14.4" height="14.4"/><line class="cls-5" x1="390.2" y1="38.29" x2="390.2" y2="49.45"/><polygon class="cls-6" points="390.21 52.77 394.71 45.58 385.71 45.58 390.21 52.77"/><polygon class="cls-6" points="530.61 52.77 535.11 45.58 526.11 45.58 530.61 52.77"/><polygon class="cls-6" points="249.81 52.77 254.31 45.58 245.31 45.58 249.81 52.77"/><line class="cls-7" x1="118.02" y1="246.73" x2="120.02" y2="246.73"/><line class="cls-8" x1="124.25" y1="246.73" x2="147.51" y2="246.73"/><line class="cls-7" x1="149.63" y1="246.73" x2="151.63" y2="246.73"/><line class="cls-7" x1="67.75" y1="246.73" x2="69.75" y2="246.73"/><line class="cls-9" x1="73.82" y1="246.73" x2="96.23" y2="246.73"/><line class="cls-7" x1="98.26" y1="246.73" x2="100.26" y2="246.73"/><line class="cls-7" x1="165.36" y1="246.73" x2="167.36" y2="246.73"/><polyline class="cls-10" points="171.35 246.72 294.15 246.72 600.4 246.72"/><polyline class="cls-7" points="602.4 246.72 604.4 246.72 604.4 244.72"/><line class="cls-11" x1="604.4" y1="240.74" x2="604.4" y2="27.52"/><polyline class="cls-7" points="604.4 25.52 604.4 23.52 602.4 23.52"/><line class="cls-12" x1="598.39" y1="23.53" x2="39.6" y2="23.53"/><polyline class="cls-7" points="37.6 23.52 35.6 23.52 35.6 25.52"/><line class="cls-11" x1="35.6" y1="29.51" x2="35.6" y2="242.73"/><polyline class="cls-7" points="35.6 244.72 35.6 246.72 37.6 246.72"/><line class="cls-13" x1="42.23" y1="246.73" x2="49.17" y2="246.73"/><line class="cls-7" x1="51.48" y1="246.73" x2="53.48" y2="246.73"/><polygon class="cls-2" points="183.7 232.16 183.7 53.27 315.9 53.27 315.9 232.27 183.7 232.16"/><path class="cls-3" d="M315.4,53.78v178l-131.2-.11V53.78H315.4m1-1H183.2V232.66l133.2.12v-180Z"/><rect class="cls-3" x="198.1" y="110.88" width="103.4" height="38.6"/><path class="cls-3" d="M301,111.38V149H198.6v-37.6H301m1-1H197.6V150H302v-39.6Z"/><rect class="cls-3" x="198.1" y="154.08" width="103.4" height="38.6"/><path class="cls-3" d="M301,154.58v37.6H198.6v-37.6H301m1-1H197.6v39.6H302v-39.6Z"/><rect class="cls-3" x="198.1" y="67.68" width="103.4" height="38.6"/><path class="cls-3" d="M301,68.18v37.6H198.6V68.18H301m1-1H197.6v39.6H302V67.18Z"/><text class="cls-14" transform="translate(197.6 218.38)">Worker node</text><polygon class="cls-2" points="324.1 232.16 324.1 53.27 456.3 53.27 456.3 232.27 324.1 232.16"/><path class="cls-3" d="M455.8,53.78v178l-131.2-.11V53.78H455.8m1-1H323.6V232.66l133.2.12v-180Z"/><rect class="cls-3" x="338.5" y="110.88" width="103.4" height="38.6"/><path class="cls-3" d="M441.4,111.38V149H339v-37.6H441.4m1-1H338V150H442.4v-39.6Z"/><rect class="cls-3" x="338.5" y="154.08" width="103.4" height="38.6"/><path class="cls-3" d="M441.4,154.58v37.6H339v-37.6H441.4m1-1H338v39.6H442.4v-39.6Z"/><rect class="cls-3" x="338.5" y="67.68" width="103.4" height="38.6"/><path class="cls-3" d="M441.4,68.18v37.6H339V68.18H441.4m1-1H338v39.6H442.4V67.18Z"/><text class="cls-14" transform="translate(338 218.38)">Worker node</text><polygon class="cls-2" points="464.5 232.16 464.5 53.27 596.7 53.27 596.7 232.27 464.5 232.16"/><path class="cls-3" d="M596.2,53.78v178L465,231.66V53.78H596.2m1-1H464V232.66l133.2.12v-180Z"/><rect class="cls-3" x="478.9" y="110.88" width="103.4" height="38.6"/><path class="cls-3" d="M581.8,111.38V149H479.4v-37.6H581.8m1-1H478.4V150H582.8v-39.6Z"/><rect class="cls-3" x="478.9" y="154.08" width="103.4" height="38.6"/><path class="cls-3" d="M581.8,154.58v37.6H479.4v-37.6H581.8m1-1H478.4v39.6H582.8v-39.6Z"/><rect class="cls-3" x="478.9" y="67.68" width="103.4" height="38.6"/><path class="cls-3" d="M581.8,68.18v37.6H479.4V68.18H581.8m1-1H478.4v39.6H582.8V67.18Z"/><text class="cls-14" transform="translate(478.4 218.38)">Worker node</text><polyline class="cls-15" points="530.6 38.38 109.4 38.38 109.4 51.88"/><text class="cls-4" transform="translate(196.72 293.97)">Producers</text><text class="cls-14" transform="translate(57.2 218.38)">Master node</text><polygon class="cls-6" points="158 232.78 162.5 239.97 153.5 239.97 158 232.78"/><line class="cls-15" x1="249.8" y1="38.38" x2="249.8" y2="48.28"/><polygon class="cls-6" points="109.4 232.78 113.9 239.97 104.9 239.97 109.4 232.78"/><polygon class="cls-6" points="60.8 232.78 65.3 239.97 56.3 239.97 60.8 232.78"/><line class="cls-5" x1="530.6" y1="38.29" x2="530.6" y2="49.45"/></g></svg>