<svg xmlns="http://www.w3.org/2000/svg" xmlns:xlink="http://www.w3.org/1999/xlink" width="640" height="352" viewBox="0 0 640 352">
  <defs>
    <style nonce="{{ styleNonce }}">
      .cls-1, .cls-18, .cls-4, .cls-9 {
        fill: none;
      }

      .cls-11, .cls-15, .cls-17, .cls-2, .cls-21, .cls-22, .cls-24 {
        fill: #1d364d;
      }

      .cls-2 {
        clip-rule: evenodd;
      }

      .cls-3 {
        fill: #e7e9f7;
      }

      .cls-4 {
        stroke: #b0bef3;
        stroke-miterlimit: 10;
        stroke-width: 0.56px;
      }

      .cls-5 {
        fill: #d1d7f4;
      }

      .cls-13, .cls-20, .cls-6 {
        fill: #3c6df0;
      }

      .cls-7 {
        font-size: 15px;
        letter-spacing: 0.03em;
      }

      .cls-7, .cls-8 {
        fill: #fff;
      }

      .cls-13, .cls-17, .cls-21, .cls-7 {
        font-family: IBMPlexMono, IBM Plex Mono;
      }

      .cls-9 {
        stroke: #3c6df0;
      }

      .cls-18, .cls-9 {
        stroke-linecap: round;
        stroke-linejoin: round;
        stroke-width: 2px;
      }

      .cls-10 {
        fill: #2f56bd;
        opacity: 0.5;
      }

      .cls-11, .cls-13, .cls-20, .cls-22 {
        font-size: 12px;
      }

      .cls-11 {
        font-family: IBMPlexSans, IBM Plex Sans;
      }

      .cls-12 {
        fill: #e2e4e8;
      }

      .cls-13 {
        letter-spacing: 0.03em;
      }

      .cls-14, .cls-16 {
        fill: #333;
      }

      .cls-16 {
        letter-spacing: 0.03em;
      }

      .cls-17 {
        font-size: 16.94px;
        letter-spacing: 0.03em;
      }

      .cls-18 {
        stroke: #f2f4f8;
      }

      .cls-19 {
        fill: #f2f4f8;
      }

      .cls-20, .cls-22 {
        font-family: IBMPlexSans-SemiBold, IBM Plex Sans;
        font-weight: 600;
      }

      .cls-21 {
        font-size: 11px;
        letter-spacing: 0.03em;
      }

      .cls-23 {
        clip-path: url(#clip-path);
      }

      .cls-24 {
        fill-rule: evenodd;
      }

      .cls-25 {
        clip-path: url(#clip-path-2);
      }
    </style>
    <clipPath id="clip-path">
      <path class="cls-1" d="M977.69,110a1.5,1.5,0,1,1,1.5-1.5A1.5,1.5,0,0,1,977.69,110Zm-6,0h-3v-3h3Zm-7.5-1.5a1.5,1.5,0,1,1-1.5-1.5A1.5,1.5,0,0,1,964.19,108.5ZM962.69,92h15v4.5h-15Zm15.75,13.6v-3.1a1.5,1.5,0,0,0-1.5-1.5h-6V98h6.75a1.5,1.5,0,0,0,1.5-1.5V92a1.5,1.5,0,0,0-1.5-1.5h-15a1.5,1.5,0,0,0-1.5,1.5v4.5a1.5,1.5,0,0,0,1.5,1.5h6.75v3h-6a1.5,1.5,0,0,0-1.5,1.5v3.1a3,3,0,1,0,1.5,0v-3.1h6v3h-2.25v6h6v-6h-2.25v-3h6v3.1a3,3,0,1,0,1.5,0ZM964.94,95a.75.75,0,1,0-.75-.75A.76.76,0,0,0,964.94,95Z"/>
    </clipPath>
    <clipPath id="clip-path-2">
      <path class="cls-2" d="M977.69,110a1.5,1.5,0,1,1,1.5-1.5A1.5,1.5,0,0,1,977.69,110Zm-6,0h-3v-3h3Zm-7.5-1.5a1.5,1.5,0,1,1-1.5-1.5A1.5,1.5,0,0,1,964.19,108.5ZM962.69,92h15v4.5h-15Zm15.75,13.6v-3.1a1.5,1.5,0,0,0-1.5-1.5h-6V98h6.75a1.5,1.5,0,0,0,1.5-1.5V92a1.5,1.5,0,0,0-1.5-1.5h-15a1.5,1.5,0,0,0-1.5,1.5v4.5a1.5,1.5,0,0,0,1.5,1.5h6.75v3h-6a1.5,1.5,0,0,0-1.5,1.5v3.1a3,3,0,1,0,1.5,0v-3.1h6v3h-2.25v6h6v-6h-2.25v-3h6v3.1a3,3,0,1,0,1.5,0ZM964.94,95a.75.75,0,1,0-.75-.75A.76.76,0,0,0,964.94,95Z"/>
    </clipPath>
  </defs>
  <title>Schema_Basics</title>
  <g id="Layer_3" data-name="Layer 3">
    <rect class="cls-3" y="-0.48" width="640" height="352" rx="4"/>
    <ellipse class="cls-4" cx="462.83" cy="111.73" rx="2.1" ry="2.03"/>
    <ellipse class="cls-4" cx="493.29" cy="108.8" rx="2.1" ry="2.03"/>
    <ellipse class="cls-4" cx="551.13" cy="84.54" rx="2.1" ry="2.03"/>
    <ellipse class="cls-4" cx="562.88" cy="106.08" rx="2.1" ry="2.03"/>
    <path class="cls-5" d="M503.58,81.49h-1.3a1,1,0,0,1-1-1V79.2a1,1,0,0,0-1.05-1h0a1,1,0,0,0-1.05,1v1.27a1,1,0,0,1-1.05,1h-1.3a1,1,0,0,0-1,1h0a1,1,0,0,0,1,1h1.3a1,1,0,0,1,1.05,1V85.8a1,1,0,0,0,1.05,1h0a1,1,0,0,0,1.05-1V84.53a1,1,0,0,1,1-1h1.3a1,1,0,0,0,1.05-1h0A1,1,0,0,0,503.58,81.49Z"/>
    <path class="cls-5" d="M532.29,96.8H531a1,1,0,0,1-1.05-1V94.52a1,1,0,0,0-1-1h0a1,1,0,0,0-1,1v1.27a1,1,0,0,1-1.05,1h-1.31a1,1,0,0,0-1.05,1h0a1,1,0,0,0,1.05,1h1.31a1,1,0,0,1,1.05,1v1.27a1,1,0,0,0,1,1h0a1,1,0,0,0,1-1V99.84a1,1,0,0,1,1.05-1h1.31a1,1,0,0,0,1.05-1h0A1,1,0,0,0,532.29,96.8Z"/>
    <path class="cls-5" d="M587.29,104.15H586a1,1,0,0,1-1.05-1v-1.27a1,1,0,0,0-1-1h0a1,1,0,0,0-1,1v1.27a1,1,0,0,1-1.05,1h-1.31a1,1,0,0,0-1,1h0a1,1,0,0,0,1,1h1.31a1,1,0,0,1,1.05,1v1.27a1,1,0,0,0,1,1h0a1,1,0,0,0,1-1v-1.27a1,1,0,0,1,1.05-1h1.31a1,1,0,0,0,1.05-1h0A1,1,0,0,0,587.29,104.15Z"/>
  </g>
  <g id="Layer_5" data-name="Layer 5">
    <rect class="cls-6" x="224" y="96" width="176" height="176"/>
    <text class="cls-7" transform="translate(233.04 104.33)"> <tspan x="0" y="22.59">101101101001000</tspan><tspan x="0" y="45.18">000101011101100</tspan><tspan x="0" y="67.77">001011101000110</tspan><tspan x="0" y="90.36">010101110010011</tspan><tspan x="0" y="112.95">101000110111101</tspan><tspan x="0" y="135.54">10111000100001</tspan></text>
  </g>
  <g id="Layer_1" data-name="Layer 1">
    <rect class="cls-8" x="480" y="120" width="96" height="128"/>
    <g>
      <path class="cls-9" d="M358,184H468"/>
      <polygon class="cls-6" points="473 184 465 179 465 189 473 184"/>
    </g>
    <path class="cls-10" d="M400,268V256H272.07Z"/>
    <rect class="cls-6" x="64" y="136" width="96" height="96"/>
    <path class="cls-8" d="M400,48H248V256H432V80Z"/>
    <text class="cls-11" transform="translate(88.11 306.02)">Message</text>
    <text class="cls-11" transform="translate(506.34 306.02)">Payload</text>
    <polygon class="cls-12" points="405.93 81 431 84.39 431 81 405.93 81"/>
    <g>
      <text class="cls-13" transform="translate(271.98 102.22)">“type”<tspan class="cls-14" x="45.36" y="0">: “</tspan><tspan class="cls-15" x="68.04" y="0">record</tspan><tspan class="cls-16" x="113.4" y="0">”</tspan><tspan x="0" y="20">“name”</tspan><tspan class="cls-14" x="45.36" y="20">: “msg_es”</tspan><tspan x="0" y="40">“fields”</tspan><tspan class="cls-14" x="60.48" y="40">: </tspan></text>
      <text class="cls-17" transform="translate(258.78 79.88)">{</text>
      <text class="cls-17" transform="translate(259.91 240.59)">{</text>
      <polygon class="cls-18" points="432 256 248 256 248 48 400 48 400 80 432 80 432 256"/>
    </g>
    <g>
      <rect class="cls-6" x="289.48" y="156.64" width="102.66" height="18.71" rx="1"/>
      <path class="cls-19" d="M391.14,157.64v16.72H290.48V157.64H391.14m0-2H290.48a2,2,0,0,0-2,2v16.72a2,2,0,0,0,2,2H391.14a2,2,0,0,0,2-2V157.64a2,2,0,0,0-2-2Z"/>
    </g>
    <text class="cls-7" transform="translate(292.88 171.66)">1001001011</text>
    <g>
      <rect class="cls-6" x="288.78" y="178.64" width="65.12" height="18.71" rx="1"/>
      <path class="cls-19" d="M352.91,179.64v16.72H289.78V179.64h63.13m0-2H289.78a2,2,0,0,0-2,2v16.72a2,2,0,0,0,2,2h63.13a2,2,0,0,0,2-2V179.64a2,2,0,0,0-2-2Z"/>
    </g>
    <g>
      <rect class="cls-6" x="289.07" y="200.64" width="82.48" height="18.71" rx="1"/>
      <path class="cls-19" d="M370.55,201.64v16.72H290.07V201.64h80.48m0-2H290.07a2,2,0,0,0-2,2v16.72a2,2,0,0,0,2,2h80.48a2,2,0,0,0,2-2V201.64a2,2,0,0,0-2-2Z"/>
    </g>
    <text class="cls-7" transform="translate(292.88 193.78)">010110</text>
    <text class="cls-7" transform="translate(292.88 215.66)">11011100</text>
    <polyline class="cls-10" points="290.48 157.64 391.14 164.21 391.14 157.64"/>
    <polyline class="cls-10" points="289.79 179.64 352.91 185.45 352.91 179.64"/>
    <polyline class="cls-10" points="290.07 201.64 370.55 210 370.55 201.64"/>
    <path class="cls-9" d="M103,184H213"/>
    <polygon class="cls-6" points="218 184 210 179 210 189 218 184"/>
    <text class="cls-20" transform="translate(487.98 139.22)">Name</text>
    <g>
      <rect class="cls-3" x="488" y="144" width="80" height="16"/>
      <text class="cls-21" transform="translate(492.22 156.18)">1001001011</text>
    </g>
    <text class="cls-20" transform="translate(487.98 178.22)">Ref</text>
    <g>
      <rect class="cls-3" x="488" y="184" width="56" height="16"/>
      <text class="cls-21" transform="translate(492.22 196.18)">010110</text>
    </g>
    <text class="cls-20" transform="translate(487.98 219.22)">Date</text>
    <g>
      <rect class="cls-3" x="488" y="224" width="72" height="16"/>
      <text class="cls-21" transform="translate(492.22 236.18)">11011100</text>
    </g>
    <text class="cls-22" transform="translate(272.66 305.75)">AVRO schema</text>
    <g>
      <path class="cls-24" d="M977.69,110a1.5,1.5,0,1,1,1.5-1.5A1.5,1.5,0,0,1,977.69,110Zm-6,0h-3v-3h3Zm-7.5-1.5a1.5,1.5,0,1,1-1.5-1.5A1.5,1.5,0,0,1,964.19,108.5ZM962.69,92h15v4.5h-15Zm15.75,13.6v-3.1a1.5,1.5,0,0,0-1.5-1.5h-6V98h6.75a1.5,1.5,0,0,0,1.5-1.5V92a1.5,1.5,0,0,0-1.5-1.5h-15a1.5,1.5,0,0,0-1.5,1.5v4.5a1.5,1.5,0,0,0,1.5,1.5h6.75v3h-6a1.5,1.5,0,0,0-1.5,1.5v3.1a3,3,0,1,0,1.5,0v-3.1h6v3h-2.25v6h6v-6h-2.25v-3h6v3.1a3,3,0,1,0,1.5,0ZM964.94,95a.75.75,0,1,0-.75-.75A.76.76,0,0,0,964.94,95Z"/>
      <g class="cls-25">
        <rect class="cls-15" x="-179.81" y="-608" width="1440" height="1027"/>
      </g>
    </g>
  </g>
</svg>
