<svg xmlns="http://www.w3.org/2000/svg" xmlns:xlink="http://www.w3.org/1999/xlink" width="640" height="352" viewBox="0 0 640 352">
  <defs>
    <style nonce="{{ styleNonce }}">
      .cls-1, .cls-12, .cls-15, .cls-8 {
        fill: none;
      }

      .cls-16, .cls-2, .cls-20, .cls-21, .cls-5, .cls-7 {
        fill: #1d364d;
      }

      .cls-2 {
        clip-rule: evenodd;
      }

      .cls-3 {
        fill: #e7e9f7;
      }

      .cls-4 {
        clip-path: url(#clip-path);
      }

      .cls-5 {
        fill-rule: evenodd;
      }

      .cls-6 {
        clip-path: url(#clip-path-2);
      }

      .cls-8 {
        stroke: #b0bef3;
        stroke-miterlimit: 10;
        stroke-width: 0.56px;
      }

      .cls-9 {
        fill: #d1d7f4;
      }

      .cls-10, .cls-19 {
        fill: #3c6df0;
      }

      .cls-11 {
        font-size: 15px;
        letter-spacing: 0.03em;
      }

      .cls-11, .cls-14 {
        fill: #fff;
      }

      .cls-11, .cls-20 {
        font-family: IBMPlexMono, IBM Plex Mono;
      }

      .cls-12 {
        stroke: #3c6df0;
      }

      .cls-12, .cls-15 {
        stroke-linecap: round;
        stroke-linejoin: round;
        stroke-width: 2px;
      }

      .cls-13 {
        fill: #2f56bd;
        opacity: 0.5;
      }

      .cls-15 {
        stroke: #f2f4f8;
      }

      .cls-16, .cls-19, .cls-21 {
        font-size: 12px;
      }

      .cls-16 {
        font-family: IBMPlexSans, IBM Plex Sans;
      }

      .cls-17 {
        fill: #e2e4e8;
      }

      .cls-18 {
        fill: #f2f4f8;
      }

      .cls-19, .cls-21 {
        font-family: IBMPlexSans-SemiBold, IBM Plex Sans;
        font-weight: 600;
      }

      .cls-20 {
        font-size: 11px;
        letter-spacing: 0.03em;
      }
    </style>
    <clipPath id="clip-path">
      <path class="cls-1" d="M977.69,110a1.5,1.5,0,1,1,1.5-1.5A1.5,1.5,0,0,1,977.69,110Zm-6,0h-3v-3h3Zm-7.5-1.5a1.5,1.5,0,1,1-1.5-1.5A1.5,1.5,0,0,1,964.19,108.5ZM962.69,92h15v4.5h-15Zm15.75,13.6v-3.1a1.5,1.5,0,0,0-1.5-1.5h-6V98h6.75a1.5,1.5,0,0,0,1.5-1.5V92a1.5,1.5,0,0,0-1.5-1.5h-15a1.5,1.5,0,0,0-1.5,1.5v4.5a1.5,1.5,0,0,0,1.5,1.5h6.75v3h-6a1.5,1.5,0,0,0-1.5,1.5v3.1a3,3,0,1,0,1.5,0v-3.1h6v3h-2.25v6h6v-6h-2.25v-3h6v3.1a3,3,0,1,0,1.5,0ZM964.94,95a.75.75,0,1,0-.75-.75A.76.76,0,0,0,964.94,95Z"/>
    </clipPath>
    <clipPath id="clip-path-2">
      <path class="cls-2" d="M977.69,110a1.5,1.5,0,1,1,1.5-1.5A1.5,1.5,0,0,1,977.69,110Zm-6,0h-3v-3h3Zm-7.5-1.5a1.5,1.5,0,1,1-1.5-1.5A1.5,1.5,0,0,1,964.19,108.5ZM962.69,92h15v4.5h-15Zm15.75,13.6v-3.1a1.5,1.5,0,0,0-1.5-1.5h-6V98h6.75a1.5,1.5,0,0,0,1.5-1.5V92a1.5,1.5,0,0,0-1.5-1.5h-15a1.5,1.5,0,0,0-1.5,1.5v4.5a1.5,1.5,0,0,0,1.5,1.5h6.75v3h-6a1.5,1.5,0,0,0-1.5,1.5v3.1a3,3,0,1,0,1.5,0v-3.1h6v3h-2.25v6h6v-6h-2.25v-3h6v3.1a3,3,0,1,0,1.5,0ZM964.94,95a.75.75,0,1,0-.75-.75A.76.76,0,0,0,964.94,95Z"/>
    </clipPath>
  </defs>
  <title>Schema_Basics</title>
  <g id="Layer_3" data-name="Layer 3">
    <rect class="cls-3" width="640" height="352"/>
  </g>
  <g id="Layer_1" data-name="Layer 1">
    <g>
      <path class="cls-5" d="M977.69,110a1.5,1.5,0,1,1,1.5-1.5A1.5,1.5,0,0,1,977.69,110Zm-6,0h-3v-3h3Zm-7.5-1.5a1.5,1.5,0,1,1-1.5-1.5A1.5,1.5,0,0,1,964.19,108.5ZM962.69,92h15v4.5h-15Zm15.75,13.6v-3.1a1.5,1.5,0,0,0-1.5-1.5h-6V98h6.75a1.5,1.5,0,0,0,1.5-1.5V92a1.5,1.5,0,0,0-1.5-1.5h-15a1.5,1.5,0,0,0-1.5,1.5v4.5a1.5,1.5,0,0,0,1.5,1.5h6.75v3h-6a1.5,1.5,0,0,0-1.5,1.5v3.1a3,3,0,1,0,1.5,0v-3.1h6v3h-2.25v6h6v-6h-2.25v-3h6v3.1a3,3,0,1,0,1.5,0ZM964.94,95a.75.75,0,1,0-.75-.75A.76.76,0,0,0,964.94,95Z"/>
      <g class="cls-6">
        <rect class="cls-7" x="-179.81" y="-608" width="1440" height="1027"/>
      </g>
    </g>
    <g>
      <ellipse class="cls-8" cx="377.83" cy="80.73" rx="2.1" ry="2.03"/>
      <ellipse class="cls-8" cx="404.29" cy="39.8" rx="2.1" ry="2.03"/>
      <ellipse class="cls-8" cx="451.13" cy="27.54" rx="2.1" ry="2.03"/>
      <ellipse class="cls-8" cx="466.88" cy="53.08" rx="2.1" ry="2.03"/>
      <ellipse class="cls-8" cx="492.88" cy="48.08" rx="2.1" ry="2.03"/>
      <path class="cls-9" d="M383.58,52.49h-1.3a1,1,0,0,1-1-1V50.2a1,1,0,0,0-1.05-1h0a1,1,0,0,0-1.05,1v1.27a1,1,0,0,1-1.05,1h-1.3a1,1,0,0,0-1,1h0a1,1,0,0,0,1,1h1.3a1,1,0,0,1,1.05,1V56.8a1,1,0,0,0,1.05,1h0a1,1,0,0,0,1.05-1V55.53a1,1,0,0,1,1-1h1.3a1,1,0,0,0,1.05-1h0A1,1,0,0,0,383.58,52.49Z"/>
      <path class="cls-9" d="M429.29,46.8H428a1,1,0,0,1-1.05-1V44.52a1,1,0,0,0-1.05-1h0a1,1,0,0,0-1,1v1.27a1,1,0,0,1-1,1h-1.31a1,1,0,0,0-1.05,1h0a1,1,0,0,0,1.05,1h1.31a1,1,0,0,1,1,1v1.27a1,1,0,0,0,1,1h0a1,1,0,0,0,1.05-1V49.84a1,1,0,0,1,1.05-1h1.31a1,1,0,0,0,1-1h0A1,1,0,0,0,429.29,46.8Z"/>
      <path class="cls-9" d="M474.29,32.8H473a1,1,0,0,1-1.05-1V30.52a1,1,0,0,0-1.05-1h0a1,1,0,0,0-1,1v1.27a1,1,0,0,1-1,1h-1.31a1,1,0,0,0-1.05,1h0a1,1,0,0,0,1.05,1h1.31a1,1,0,0,1,1,1v1.27a1,1,0,0,0,1,1h0a1,1,0,0,0,1.05-1V35.84a1,1,0,0,1,1.05-1h1.31a1,1,0,0,0,1-1h0A1,1,0,0,0,474.29,32.8Z"/>
      <path class="cls-9" d="M500.29,78.15H499a1,1,0,0,1-1.05-1V75.86a1,1,0,0,0-1-1h0a1,1,0,0,0-1.05,1v1.27a1,1,0,0,1-1,1h-1.31a1,1,0,0,0-1,1h0a1,1,0,0,0,1,1h1.31a1,1,0,0,1,1,1v1.27a1,1,0,0,0,1.05,1h0a1,1,0,0,0,1-1V81.19a1,1,0,0,1,1.05-1h1.31a1,1,0,0,0,1-1h0A1,1,0,0,0,500.29,78.15Z"/>
      <g>
        <rect class="cls-10" x="136" y="96" width="176" height="176"/>
        <text class="cls-11" transform="translate(145.04 104.33)"> <tspan x="0" y="22.59">101101101001000</tspan><tspan x="0" y="45.18">000101011101100</tspan><tspan x="0" y="67.77">001011101000110</tspan><tspan x="0" y="90.36">010101110010011</tspan><tspan x="0" y="112.95">101000110111101</tspan><tspan x="0" y="135.54">10111000100001</tspan></text>
        <g>
          <path class="cls-12" d="M270,179H380"/>
          <polygon class="cls-10" points="385 178.99 377 173.99 377 183.99 385 178.99"/>
        </g>
        <path class="cls-13" d="M312,268V256H184.07Z"/>
        <path class="cls-14" d="M312,48H160V256H344V80Z"/>
        <polygon class="cls-15" points="344 256 160 256 160 48 312 48 312 80 344 80 344 256"/>
        <text class="cls-16" transform="translate(418.34 306.02)">Payload</text>
        <polygon class="cls-17" points="317.93 81 343 84.39 343 81 317.93 81"/>
        <g>
          <g>
            <rect class="cls-10" x="201.48" y="156.84" width="102.66" height="18.71" rx="1"/>
            <path class="cls-18" d="M303.14,157.84v16.72H202.48V157.84H303.14m0-2H202.48a2,2,0,0,0-2,2v16.72a2,2,0,0,0,2,2H303.14a2,2,0,0,0,2-2V157.84a2,2,0,0,0-2-2Z"/>
          </g>
          <text class="cls-11" transform="translate(204.88 171.86)">1000111010</text>
          <polyline class="cls-13" points="202.48 157.84 303.14 164.41 303.14 157.84"/>
        </g>
        <g>
          <g>
            <rect class="cls-10" x="180.78" y="179.44" width="65.12" height="18.71" rx="1"/>
            <path class="cls-18" d="M244.91,180.44v16.72H181.78V180.44h63.13m0-2H181.78a2,2,0,0,0-2,2v16.72a2,2,0,0,0,2,2h63.13a2,2,0,0,0,2-2V180.44a2,2,0,0,0-2-2Z"/>
          </g>
          <text class="cls-11" transform="translate(184.88 194.58)">011110</text>
          <polyline class="cls-13" points="181.78 180.44 244.91 186.25 244.91 180.44"/>
        </g>
        <g>
          <g>
            <rect class="cls-10" x="201.07" y="202.04" width="82.48" height="18.71" rx="1"/>
            <path class="cls-18" d="M282.55,203v16.72H202.07V203h80.48m0-2H202.07a2,2,0,0,0-2,2v16.72a2,2,0,0,0,2,2h80.48a2,2,0,0,0,2-2V203a2,2,0,0,0-2-2Z"/>
          </g>
          <text class="cls-11" transform="translate(204.88 217.06)">11011100</text>
          <polyline class="cls-13" points="202.07 203.04 282.55 211.4 282.55 203.04"/>
        </g>
        <g>
          <g>
            <rect class="cls-10" x="170.07" y="224.64" width="82.48" height="18.71" rx="1"/>
            <path class="cls-18" d="M251.55,225.64v16.72H171.07V225.64h80.48m0-2H171.07a2,2,0,0,0-2,2v16.72a2,2,0,0,0,2,2h80.48a2,2,0,0,0,2-2V225.64a2,2,0,0,0-2-2Z"/>
          </g>
          <text class="cls-11" transform="translate(173.88 239.66)">01001110</text>
          <polyline class="cls-13" points="171.07 225.64 251.55 234 251.55 225.64"/>
        </g>
        <g>
          <g>
            <rect class="cls-10" x="169.07" y="134.24" width="82.48" height="18.71" rx="1"/>
            <path class="cls-18" d="M250.55,135.24V152H170.07V135.24h80.48m0-2H170.07a2,2,0,0,0-2,2V152a2,2,0,0,0,2,2h80.48a2,2,0,0,0,2-2V135.24a2,2,0,0,0-2-2Z"/>
          </g>
          <text class="cls-11" transform="translate(172.88 149.26)">00100100</text>
          <polyline class="cls-13" points="170.07 135.24 250.55 143.6 250.55 135.24"/>
        </g>
        <g>
          <g>
            <rect class="cls-10" x="169.07" y="111.64" width="82.48" height="18.71" rx="1"/>
            <path class="cls-18" d="M250.55,112.64v16.72H170.07V112.64h80.48m0-2H170.07a2,2,0,0,0-2,2v16.72a2,2,0,0,0,2,2h80.48a2,2,0,0,0,2-2V112.64a2,2,0,0,0-2-2Z"/>
          </g>
          <text class="cls-11" transform="translate(172.88 126.66)">01001101</text>
          <polyline class="cls-13" points="170.07 112.64 250.55 121 250.55 112.64"/>
        </g>
        <g>
          <path class="cls-18" d="M335.55,112.64v16.72H255.07V112.64h80.48m0-2H255.07a2,2,0,0,0-2,2v16.72a2,2,0,0,0,2,2h80.48a2,2,0,0,0,2-2V112.64a2,2,0,0,0-2-2Z"/>
          <rect class="cls-10" x="255.07" y="112.64" width="57.44" height="16.71"/>
          <polyline class="cls-13" points="255.07 112.64 255 122 312 127 312 112.64"/>
        </g>
        <g>
          <rect class="cls-14" x="392" y="66" width="96" height="206"/>
          <g>
            <text class="cls-19" transform="translate(399.98 85.22)">Room</text>
            <g>
              <rect class="cls-3" x="400" y="90" width="65" height="16"/>
              <text class="cls-20" transform="translate(404.22 102.18)">01001101</text>
            </g>
          </g>
          <g>
            <text class="cls-19" transform="translate(399.98 123.97)">Ref</text>
            <g>
              <rect class="cls-3" x="400" y="129.75" width="65" height="16"/>
              <text class="cls-20" transform="translate(404.22 141.93)">00100100</text>
            </g>
          </g>
          <g>
            <text class="cls-19" transform="translate(399.98 163.72)">Date</text>
            <g>
              <rect class="cls-3" x="400" y="168.5" width="80" height="16"/>
              <text class="cls-20" transform="translate(404.22 180.68)">1000111010</text>
            </g>
          </g>
          <g>
            <text class="cls-19" transform="translate(399.98 202.47)">Time</text>
            <g>
              <rect class="cls-3" x="400" y="207.25" width="51" height="16"/>
              <text class="cls-20" transform="translate(404.22 219.43)">011110</text>
            </g>
          </g>
          <g>
            <text class="cls-19" transform="translate(399.98 241.22)">Event</text>
            <g>
              <rect class="cls-3" x="400" y="246" width="64" height="16"/>
              <text class="cls-20" transform="translate(404.22 258.18)">01001110</text>
            </g>
          </g>
        </g>
        <text class="cls-21" transform="translate(201.52 305.75)">Schema</text>
        <rect class="cls-3" x="312" y="112.64" width="24" height="16.71"/>
        <g>
          <path class="cls-18" d="M336,203v16.72H288.07V203H336m0-2H288.07a2,2,0,0,0-2,2v16.72a2,2,0,0,0,2,2H336a2,2,0,0,0,2-2V203a2,2,0,0,0-2-2Z"/>
          <rect class="cls-10" x="288.07" y="203.04" width="23.93" height="16.71"/>
          <polyline class="cls-13" points="288.07 203.04 288 212 312 215 312 203.04"/>
        </g>
        <rect class="cls-3" x="312" y="203.04" width="24" height="16.71"/>
      </g>
    </g>
  </g>
</svg>
