<svg xmlns="http://www.w3.org/2000/svg" xmlns:xlink="http://www.w3.org/1999/xlink" width="640" height="352" viewBox="0 0 640 352">
  <defs>
    <style nonce="{{ styleNonce }}">
      .cls-1, .cls-21 {
        fill: none;
      }

      .cls-19, .cls-2, .cls-22, .cls-3, .cls-6 {
        fill: #1d364d;
      }

      .cls-2 {
        clip-rule: evenodd;
      }

      .cls-4 {
        fill: #e7e9f7;
      }

      .cls-5 {
        clip-path: url(#clip-path);
      }

      .cls-6 {
        fill-rule: evenodd;
      }

      .cls-7 {
        clip-path: url(#clip-path-2);
      }

      .cls-8 {
        fill: #fff;
      }

      .cls-9 {
        fill: #f2f4f8;
      }

      .cls-10 {
        fill: #e2e4e8;
      }

      .cls-11 {
        clip-path: url(#clip-path-4);
      }

      .cls-12 {
        clip-path: url(#clip-path-5);
      }

      .cls-13 {
        clip-path: url(#clip-path-6);
      }

      .cls-14 {
        clip-path: url(#clip-path-7);
      }

      .cls-15 {
        clip-path: url(#clip-path-8);
      }

      .cls-16 {
        isolation: isolate;
      }

      .cls-17 {
        clip-path: url(#clip-path-9);
      }

      .cls-18 {
        clip-path: url(#clip-path-10);
      }

      .cls-19, .cls-22 {
        font-size: 12px;
      }

      .cls-19 {
        font-family: IBMPlexSans, IBM Plex Sans;
      }

      .cls-20 {
        fill: #3c6df0;
      }

      .cls-21 {
        stroke: #3c6df0;
        stroke-miterlimit: 10;
        stroke-width: 2px;
      }

      .cls-22 {
        font-family: IBMPlexSans-SemiBold, IBM Plex Sans;
        font-weight: 600;
      }
    </style>
    <clipPath id="clip-path">
      <path class="cls-1" d="M1165.15,585.13a1.5,1.5,0,1,1,1.5-1.5A1.5,1.5,0,0,1,1165.15,585.13Zm-6,0h-3v-3h3Zm-7.5-1.5a1.5,1.5,0,1,1-1.5-1.5A1.5,1.5,0,0,1,1151.65,583.63Zm-1.5-16.5h15v4.5h-15Zm15.75,13.6v-3.1a1.5,1.5,0,0,0-1.5-1.5h-6v-3h6.75a1.5,1.5,0,0,0,1.5-1.5v-4.5a1.5,1.5,0,0,0-1.5-1.5h-15a1.5,1.5,0,0,0-1.5,1.5v4.5a1.5,1.5,0,0,0,1.5,1.5h6.75v3h-6a1.5,1.5,0,0,0-1.5,1.5v3.1a3,3,0,1,0,1.5,0v-3.1h6v3h-2.25v6h6v-6h-2.25v-3h6v3.1a3,3,0,1,0,1.5,0Zm-13.5-10.6a.75.75,0,1,0-.75-.75A.76.76,0,0,0,1152.4,570.13Z"/>
    </clipPath>
    <clipPath id="clip-path-2">
      <path class="cls-2" d="M1165.15,585.13a1.5,1.5,0,1,1,1.5-1.5A1.5,1.5,0,0,1,1165.15,585.13Zm-6,0h-3v-3h3Zm-7.5-1.5a1.5,1.5,0,1,1-1.5-1.5A1.5,1.5,0,0,1,1151.65,583.63Zm-1.5-16.5h15v4.5h-15Zm15.75,13.6v-3.1a1.5,1.5,0,0,0-1.5-1.5h-6v-3h6.75a1.5,1.5,0,0,0,1.5-1.5v-4.5a1.5,1.5,0,0,0-1.5-1.5h-15a1.5,1.5,0,0,0-1.5,1.5v4.5a1.5,1.5,0,0,0,1.5,1.5h6.75v3h-6a1.5,1.5,0,0,0-1.5,1.5v3.1a3,3,0,1,0,1.5,0v-3.1h6v3h-2.25v6h6v-6h-2.25v-3h6v3.1a3,3,0,1,0,1.5,0Zm-13.5-10.6a.75.75,0,1,0-.75-.75A.76.76,0,0,0,1152.4,570.13Z"/>
    </clipPath>
    <clipPath id="clip-path-4">
      <path class="cls-1" d="M329.69,110a1.5,1.5,0,1,1,1.5-1.5A1.5,1.5,0,0,1,329.69,110Zm-6,0h-3v-3h3Zm-7.5-1.5a1.5,1.5,0,1,1-1.5-1.5A1.5,1.5,0,0,1,316.19,108.5ZM314.69,92h15v4.5h-15Zm15.75,13.6v-3.1a1.5,1.5,0,0,0-1.5-1.5h-6V98h6.75a1.5,1.5,0,0,0,1.5-1.5V92a1.5,1.5,0,0,0-1.5-1.5h-15a1.5,1.5,0,0,0-1.5,1.5v4.5a1.5,1.5,0,0,0,1.5,1.5h6.75v3h-6a1.5,1.5,0,0,0-1.5,1.5v3.1a3,3,0,1,0,1.5,0v-3.1h6v3h-2.25v6h6v-6h-2.25v-3h6v3.1a3,3,0,1,0,1.5,0ZM316.94,95a.75.75,0,1,0-.75-.75A.76.76,0,0,0,316.94,95Z"/>
    </clipPath>
    <clipPath id="clip-path-5">
      <rect class="cls-1" x="-827.81" y="-608" width="1440" height="1027"/>
    </clipPath>
    <clipPath id="clip-path-6">
      <rect class="cls-1" x="306.19" y="85" width="32" height="32"/>
    </clipPath>
    <clipPath id="clip-path-7">
      <path class="cls-2" d="M329.69,110a1.5,1.5,0,1,1,1.5-1.5A1.5,1.5,0,0,1,329.69,110Zm-6,0h-3v-3h3Zm-7.5-1.5a1.5,1.5,0,1,1-1.5-1.5A1.5,1.5,0,0,1,316.19,108.5ZM314.69,92h15v4.5h-15Zm15.75,13.6v-3.1a1.5,1.5,0,0,0-1.5-1.5h-6V98h6.75a1.5,1.5,0,0,0,1.5-1.5V92a1.5,1.5,0,0,0-1.5-1.5h-15a1.5,1.5,0,0,0-1.5,1.5v4.5a1.5,1.5,0,0,0,1.5,1.5h6.75v3h-6a1.5,1.5,0,0,0-1.5,1.5v3.1a3,3,0,1,0,1.5,0v-3.1h6v3h-2.25v6h6v-6h-2.25v-3h6v3.1a3,3,0,1,0,1.5,0ZM316.94,95a.75.75,0,1,0-.75-.75A.76.76,0,0,0,316.94,95Z"/>
    </clipPath>
    <clipPath id="clip-path-8">
      <rect class="cls-3" x="-827.81" y="-608" width="1440" height="1027"/>
    </clipPath>
    <clipPath id="clip-path-9">
      <rect class="cls-3" x="306.19" y="85" width="32" height="32"/>
    </clipPath>
    <clipPath id="clip-path-10">
      <rect class="cls-3" x="311.19" y="90" width="22" height="22"/>
    </clipPath>
  </defs>
  <title>Schema_Basics</title>
  <g id="Layer_3" data-name="Layer 3">
    <rect class="cls-4" width="640" height="352"/>
  </g>
  <g id="Layer_1" data-name="Layer 1">
    <g>
      <path class="cls-6" d="M1165.15,585.13a1.5,1.5,0,1,1,1.5-1.5A1.5,1.5,0,0,1,1165.15,585.13Zm-6,0h-3v-3h3Zm-7.5-1.5a1.5,1.5,0,1,1-1.5-1.5A1.5,1.5,0,0,1,1151.65,583.63Zm-1.5-16.5h15v4.5h-15Zm15.75,13.6v-3.1a1.5,1.5,0,0,0-1.5-1.5h-6v-3h6.75a1.5,1.5,0,0,0,1.5-1.5v-4.5a1.5,1.5,0,0,0-1.5-1.5h-15a1.5,1.5,0,0,0-1.5,1.5v4.5a1.5,1.5,0,0,0,1.5,1.5h6.75v3h-6a1.5,1.5,0,0,0-1.5,1.5v3.1a3,3,0,1,0,1.5,0v-3.1h6v3h-2.25v6h6v-6h-2.25v-3h6v3.1a3,3,0,1,0,1.5,0Zm-13.5-10.6a.75.75,0,1,0-.75-.75A.76.76,0,0,0,1152.4,570.13Z"/>
      <g class="cls-7">
        <rect class="cls-3" x="7.65" y="-132.87" width="1440" height="1027"/>
      </g>
    </g>
    <g>
      <rect class="cls-8" x="224.5" y="56.5" width="199" height="239"/>
      <path class="cls-9" d="M423,57V295H225V57H423m1-1H224V296H424V56Z"/>
    </g>
    <polygon class="cls-10" points="400 168 239.19 168 400 171 400 168"/>
    <g>
      <rect class="cls-8" x="240.5" y="40.5" width="167" height="127"/>
      <path class="cls-9" d="M407,41V167H241V41H407m1-1H240V168H408V40Z"/>
    </g>
    <g>
      <path class="cls-6" d="M329.69,110a1.5,1.5,0,1,1,1.5-1.5A1.5,1.5,0,0,1,329.69,110Zm-6,0h-3v-3h3Zm-7.5-1.5a1.5,1.5,0,1,1-1.5-1.5A1.5,1.5,0,0,1,316.19,108.5ZM314.69,92h15v4.5h-15Zm15.75,13.6v-3.1a1.5,1.5,0,0,0-1.5-1.5h-6V98h6.75a1.5,1.5,0,0,0,1.5-1.5V92a1.5,1.5,0,0,0-1.5-1.5h-15a1.5,1.5,0,0,0-1.5,1.5v4.5a1.5,1.5,0,0,0,1.5,1.5h6.75v3h-6a1.5,1.5,0,0,0-1.5,1.5v3.1a3,3,0,1,0,1.5,0v-3.1h6v3h-2.25v6h6v-6h-2.25v-3h6v3.1a3,3,0,1,0,1.5,0ZM316.94,95a.75.75,0,1,0-.75-.75A.76.76,0,0,0,316.94,95Z"/>
      <g class="cls-14">
        <g>
          <rect class="cls-3" x="-827.81" y="-608" width="1440" height="1027"/>
          <g class="cls-15">
            <g class="cls-16">
              <g>
                <rect class="cls-3" x="306.19" y="85" width="32" height="32"/>
                <g class="cls-17">
                  <g>
                    <rect class="cls-3" x="311.19" y="90" width="22" height="22"/>
                    <g class="cls-18">
                      <rect class="cls-3" x="306.69" y="85.5" width="31" height="31.01"/>
                    </g>
                  </g>
                </g>
              </g>
            </g>
          </g>
        </g>
      </g>
    </g>
    <text class="cls-19" transform="translate(278.56 151.75)">Schema registry</text>
    <text class="cls-19" transform="translate(270.31 279.75)">IBM Event Streams</text>
    <path class="cls-9" d="M407,201v46H241V201H407m1-1H240v48H408V200Z"/>
    <rect class="cls-20" x="256" y="216" width="16" height="16"/>
    <rect class="cls-20" x="280" y="216" width="16" height="16"/>
    <rect class="cls-20" x="304" y="216" width="16" height="16"/>
    <rect class="cls-20" x="328" y="216" width="16" height="16"/>
    <rect class="cls-20" x="352" y="216" width="16" height="16"/>
    <polyline class="cls-21" points="232 88 128 88 128 208"/>
    <polygon class="cls-20" points="240 87.99 232 82.99 232 92.99 240 87.99"/>
    <g>
      <line class="cls-21" x1="232" y1="224" x2="144" y2="224"/>
      <polygon class="cls-20" points="240 224 232 219 232 229 240 224"/>
    </g>
    <g>
      <line class="cls-21" x1="496" y1="224" x2="408" y2="224"/>
      <polygon class="cls-20" points="504 224 496 219 496 229 504 224"/>
    </g>
    <text class="cls-19" transform="translate(101.44 270.01)">Producer</text>
    <g>
      <rect class="cls-8" x="112.5" y="208.5" width="31" height="31"/>
      <path class="cls-9" d="M143,209v30H113V209h30m1-1H112v32h32V208Z"/>
    </g>
    <polyline class="cls-21" points="414 88 520 88 520 208"/>
    <polygon class="cls-20" points="408 87.99 416 82.99 416 92.99 408 87.99"/>
    <text class="cls-19" transform="translate(491.08 270.01)">Consumer</text>
    <g>
      <rect class="cls-8" x="504.5" y="208.5" width="31" height="31"/>
      <path class="cls-9" d="M535,209v30H505V209h30m1-1H504v32h32V208Z"/>
    </g>
    <g>
      <rect class="cls-8" x="64.5" y="168.5" width="127" height="31"/>
      <path class="cls-9" d="M191,169v30H65V169H191m1-1H64v32H192V168Z"/>
    </g>
    <text class="cls-22" transform="translate(99.52 188.12)">Serializer</text>
    <g>
      <rect class="cls-8" x="456.5" y="168.5" width="127" height="31"/>
      <path class="cls-9" d="M583,169v30H457V169H583m1-1H456v32H584V168Z"/>
    </g>
    <text class="cls-22" transform="translate(484.71 188.12)">Deserializer</text>
    <rect class="cls-20" x="120" y="216" width="16" height="16"/>
    <rect class="cls-20" x="512" y="216" width="16" height="16"/>
  </g>
</svg>
